<?xml version="1.0" encoding="UTF-8"?> <svg xmlns="http://www.w3.org/2000/svg" width="432" height="170" viewBox="0 0 432 170" fill="none"><path d="M326.203 157.038C325.969 157.022 325.76 157.303 325.739 157.652C325.719 158.006 325.896 158.303 326.13 158.319C326.364 158.335 326.573 158.053 326.594 157.704C326.614 157.35 326.437 157.053 326.203 157.038Z" fill="#A8C4DC"></path><path d="M338.172 156.163C337.823 156.277 337.917 156.387 338.417 156.434C338.865 156.481 339.12 156.392 338.99 156.241C338.854 156.09 338.484 156.054 338.172 156.163Z" fill="#A8C4DC"></path><path d="M335.698 155.881C335.682 156.115 335.854 156.318 336.073 156.328C336.297 156.344 336.604 156.167 336.765 155.943C336.922 155.714 336.755 155.511 336.385 155.49C336.021 155.469 335.708 155.646 335.698 155.881Z" fill="#A8C4DC"></path><mask id="mask0_1264_3254" style="mask-type:luminance" maskUnits="userSpaceOnUse" x="224" y="167" width="3" height="3"><path d="M224 167.719H226.667V170H224V167.719Z" fill="white"></path></mask><g mask="url(#mask0_1264_3254)"><path d="M225.266 168.276C225.021 168.261 224.922 168.448 225.052 168.693C225.188 168.933 225.38 169.141 225.479 169.146C225.583 169.151 225.682 168.964 225.693 168.729C225.708 168.495 225.516 168.292 225.266 168.276Z" fill="#A8C4DC"></path></g><path d="M255.151 166.569C255.292 166.83 255.61 167.054 255.86 167.069C256.146 167.085 256.125 166.835 255.813 166.413C255.266 165.674 254.735 165.799 255.151 166.569Z" fill="#A8C4DC"></path><path d="M287.333 164.5C286.703 164.703 286.714 164.771 287.422 165.078C288.354 165.48 288.641 165.365 288.297 164.724C288.161 164.48 287.729 164.375 287.333 164.5Z" fill="#A8C4DC"></path><path d="M331.687 147.517C331.859 147.272 331.396 147.074 330.562 147.027C329.495 146.97 329.302 147.064 329.766 147.402C330.568 147.986 331.323 148.033 331.687 147.517Z" fill="#A8C4DC"></path><path d="M376.896 146.007C376.547 146.126 376.641 146.23 377.141 146.283C377.589 146.329 377.844 146.241 377.714 146.09C377.578 145.939 377.214 145.902 376.896 146.007Z" fill="#A8C4DC"></path><path d="M364.625 148.427C364.265 148.542 363.963 148.708 363.958 148.802C363.953 148.896 364.239 148.989 364.588 149.01C364.942 149.026 365.239 148.859 365.255 148.63C365.271 148.401 364.984 148.312 364.625 148.427Z" fill="#A8C4DC"></path><path d="M158.016 7.19933C158.031 6.96495 157.958 6.76704 157.854 6.76183C157.75 6.75662 157.537 6.93891 157.375 7.16287C157.219 7.38683 157.292 7.58475 157.542 7.60037C157.792 7.61599 158.005 7.4337 158.016 7.19933Z" fill="#A8C4DC"></path><path d="M292.547 153.788C292.563 153.553 292.38 153.35 292.146 153.334C291.912 153.324 291.708 153.506 291.693 153.741C291.677 153.975 291.859 154.178 292.094 154.189C292.328 154.204 292.531 154.022 292.547 153.788Z" fill="#A8C4DC"></path><path d="M170.599 4.50597C170.614 4.2716 170.541 4.07368 170.437 4.06847C170.333 4.06326 170.12 4.24035 169.958 4.4643C169.802 4.69347 169.875 4.89139 170.125 4.90701C170.37 4.91743 170.588 4.74035 170.599 4.50597Z" fill="#A8C4DC"></path><path d="M350.568 35.2877C351.386 35.6732 351.886 35.668 352.604 35.2617C353.193 34.9284 353.198 34.8763 352.63 34.8086C352.276 34.7721 351.563 34.6315 351.042 34.5013C350.042 34.2513 349.672 34.8659 350.568 35.2877Z" fill="#A8C4DC"></path><path d="M348.385 34.1621C348.62 34.1725 348.812 34.0996 348.823 33.9954C348.828 33.8913 348.646 33.6777 348.422 33.5215C348.193 33.36 347.995 33.4329 347.984 33.6829C347.969 33.9329 348.146 34.1465 348.385 34.1621Z" fill="#A8C4DC"></path><path d="M150.922 164.793C150.438 164.761 150.151 164.938 150.281 165.183C150.412 165.428 150.797 165.642 151.136 165.662C151.474 165.678 151.766 165.506 151.776 165.272C151.792 165.037 151.406 164.819 150.922 164.793Z" fill="#A8C4DC"></path><mask id="mask1_1264_3254" style="mask-type:luminance" maskUnits="userSpaceOnUse" x="220" y="167" width="3" height="3"><path d="M220 167.719H222.667V170H220V167.719Z" fill="white"></path></mask><g mask="url(#mask1_1264_3254)"><path d="M221.599 168.755C221.229 168.588 221.052 168.645 221.187 168.895C221.318 169.14 221.604 169.343 221.828 169.359C222.443 169.395 222.323 169.078 221.599 168.755Z" fill="#A8C4DC"></path></g><path d="M176.609 4.5942C178.583 4.33899 179.239 3.7817 177.437 3.88587C176.661 3.93274 175.823 4.15149 175.568 4.37545C175.26 4.65149 175.594 4.7192 176.609 4.5942Z" fill="#A8C4DC"></path><path d="M171.823 17.6407C171.646 18.0209 171.495 18.5105 171.484 18.724C171.448 19.323 172.193 19.2345 172.479 18.6043C172.614 18.297 172.594 17.797 172.432 17.4949C172.213 17.0834 172.057 17.1199 171.823 17.6407Z" fill="#A8C4DC"></path><path d="M136.406 25.5064C135.917 25.6002 135.505 25.8658 135.495 26.0898C135.458 26.6575 136.865 26.4179 137.104 25.8137C137.229 25.5064 136.974 25.3919 136.406 25.5064Z" fill="#A8C4DC"></path><path d="M138.505 25.3289C139.005 25.3601 139.406 25.1049 139.427 24.7403C139.448 24.3914 139.354 24.0945 139.219 24.0841C139.089 24.0789 138.672 24.3445 138.297 24.6726C137.698 25.2091 137.719 25.282 138.505 25.3289Z" fill="#A8C4DC"></path><path d="M182.646 14.6316C182.489 14.8608 182.562 15.0587 182.812 15.0691C183.057 15.0847 183.276 14.9077 183.286 14.6681C183.302 14.4337 183.229 14.241 183.125 14.2306C183.021 14.2254 182.807 14.4077 182.646 14.6316Z" fill="#A8C4DC"></path><path d="M147.563 22.2195C147.406 22.5632 147.464 22.8549 147.693 22.8705C147.917 22.8809 148.12 22.6049 148.141 22.2507C148.161 21.9018 148.104 21.6049 148.01 21.5997C147.917 21.5945 147.714 21.8757 147.563 22.2195Z" fill="#A8C4DC"></path><path d="M160.563 20.1877C160.412 20.6512 160.443 21.0418 160.63 21.0523C160.984 21.0731 161.552 20.0627 161.594 19.3387C161.636 18.6408 160.859 19.2814 160.563 20.1877Z" fill="#A8C4DC"></path><path d="M253.802 14.0797C253.932 14.3193 254.125 14.5276 254.229 14.5328C254.333 14.538 254.427 14.3505 254.443 14.1161C254.453 13.8818 254.261 13.6786 254.016 13.663C253.766 13.6474 253.672 13.8349 253.802 14.0797Z" fill="#A8C4DC"></path><path d="M334.995 28.6676C334.979 28.902 335.161 29.1051 335.396 29.1207C335.63 29.1311 335.833 28.9541 335.849 28.7145C335.859 28.4801 335.682 28.277 335.448 28.2666C335.213 28.2509 335.005 28.4332 334.995 28.6676Z" fill="#A8C4DC"></path><mask id="mask2_1264_3254" style="mask-type:luminance" maskUnits="userSpaceOnUse" x="0" y="0" width="432" height="170"><path d="M0 0H432V170H0V0Z" fill="white"></path></mask><g mask="url(#mask2_1264_3254)"><path d="M430.891 117.02C431.323 117.671 431.313 117.791 430.828 117.734C430.505 117.697 429.87 117.484 429.412 117.255L428.578 116.838L429.438 116.854C430.146 116.864 430.188 116.791 429.672 116.416C429.037 115.947 429.375 115.817 430.662 116.026C431.688 116.187 431.646 115.395 430.61 115.062C429.584 114.729 429.547 113.953 430.547 113.822C431.094 113.749 431.334 113.213 431.495 111.703C431.719 109.619 431.511 109.286 430.526 110.151C430.063 110.557 430.026 110.406 430.328 109.39C430.537 108.697 430.985 107.651 431.323 107.067C432.005 105.885 431.813 105.286 430.573 104.739C429.792 104.401 429.792 104.348 430.505 103.999C430.933 103.791 431.297 103.333 431.318 102.979C431.339 102.624 431.193 102.421 431 102.526C430.808 102.63 430.38 102.52 430.052 102.286C429.63 101.984 429.615 101.864 429.995 101.885C430.641 101.911 430.36 99.7235 429.651 99.187C429.391 98.9891 429.38 98.8485 429.63 98.8589C429.865 98.8641 429.781 98.661 429.443 98.411C428.901 98.0099 428.906 97.911 429.474 97.588C430.037 97.2703 430.026 97.1714 429.412 96.8953C429.016 96.7182 428.709 96.3016 428.724 95.9735C428.745 95.6453 428.568 95.3693 428.334 95.3537C428.099 95.3432 427.927 94.9735 427.953 94.536C428 93.7078 426.646 91.1974 425.235 89.4943C424.787 88.9526 424.334 88.0672 424.229 87.5255C424.125 86.9839 423.886 86.5307 423.698 86.5203C423.505 86.5099 422.953 85.7547 422.464 84.8432C421.375 82.8016 420.755 82.0672 420.094 82.0307C419.719 82.0047 419.714 81.8537 420.078 81.463C420.459 81.062 420.287 80.5776 419.391 79.4735C418.74 78.6662 418.214 77.8328 418.229 77.6089C418.24 77.3901 417.964 77.1922 417.615 77.1714C417.261 77.1505 416.985 76.9214 417 76.6557C417.031 76.1557 414.62 73.5932 414.073 73.5464C413.901 73.5307 413.771 73.2339 413.792 72.8797C413.813 72.5307 413.636 72.2287 413.401 72.2182C413.167 72.2026 412.995 71.9057 413.016 71.5516C413.037 71.1922 412.667 70.8901 412.177 70.8589C411.698 70.8328 410.813 70.2547 410.219 69.5724C409.62 68.8953 408.985 68.3797 408.808 68.4214C408.625 68.4682 408.49 68.3016 408.505 68.0516C408.521 67.8016 408.334 67.7078 408.089 67.838C407.849 67.9682 407.662 67.8224 407.683 67.5151C407.698 67.2078 407.151 66.6662 406.464 66.312C405.776 65.9578 405.328 65.5047 405.464 65.3068C405.818 64.8068 404.104 62.9682 403.172 62.8432C402.755 62.786 401.901 62.2339 401.276 61.6089C400.656 60.9839 399.823 60.3276 399.427 60.1505C399.026 59.9682 398.714 59.6505 398.729 59.437C398.74 59.2235 398.224 58.911 397.578 58.7443C396.568 58.4787 394.698 57.1089 392.568 55.0516C392.235 54.7339 391.933 54.5724 391.886 54.687C391.839 54.8016 391.417 54.5047 390.943 54.0255C390.474 53.5516 389.959 53.2755 389.797 53.4214C389.63 53.5672 389.24 53.2651 388.927 52.7547C388.469 52.0151 388.266 51.937 387.953 52.3797C387.662 52.7807 387.558 52.7912 387.578 52.411C387.604 51.7807 383.599 49.3641 383.031 49.6662C382.813 49.786 382.526 49.6766 382.391 49.4266C382.255 49.1714 381.927 49.0828 381.662 49.2287C381.354 49.3953 381.276 49.187 381.453 48.6505C381.677 47.9578 381.547 47.838 380.703 47.9474C379.969 48.0464 379.693 47.8849 379.724 47.3901C379.745 47.0099 379.62 46.6818 379.443 46.6557C376.88 46.3016 375.287 45.8797 375.188 45.5464C375.125 45.3276 374.709 45.1193 374.266 45.0932C373.75 45.0672 373.558 44.838 373.724 44.4682C373.99 43.8849 371.308 42.5776 368.891 42.1193C368.308 42.0099 367.896 41.687 367.964 41.411C368.162 40.6453 366.438 39.7026 365.995 40.338C365.735 40.7026 365.531 40.6193 365.24 40.0203C364.896 39.312 364.662 39.2547 363.547 39.5985C362.354 39.9735 362.214 39.911 361.808 38.8589C361.391 37.7912 361.323 37.7599 360.761 38.4474C360.422 38.8537 360.099 38.9943 360.026 38.7599C359.959 38.5307 359.427 38.2495 358.844 38.1349C358.261 38.0203 357.683 37.7703 357.558 37.5776C357.433 37.3901 356.724 37.1557 355.985 37.062C355.24 36.963 354.641 36.7807 354.646 36.6505C354.672 36.2026 351.667 36.2443 351.636 36.687C351.615 36.9735 351.5 36.9526 351.318 36.6349C350.88 35.8589 347.334 34.5412 346.839 34.9682C346.188 35.5307 345.297 35.3485 345.334 34.661C345.354 34.3276 345.078 33.7235 344.719 33.3224C343.787 32.2703 344.412 31.9787 345.641 32.8901C346.485 33.5151 346.688 33.5464 346.714 33.0568C346.766 32.2078 345.287 31.838 342.401 31.9682C340.886 32.036 339.927 31.9162 339.943 31.661C339.953 31.4318 339.5 30.9943 338.927 30.6922C338.235 30.3328 337.88 30.2964 337.86 30.5932C337.849 30.8328 337.62 30.8797 337.354 30.6974C336.703 30.2391 334.433 30.062 334.162 30.4474C334.042 30.6193 333.578 30.536 333.13 30.2599C332.683 29.9839 332.433 29.5985 332.573 29.3953C332.714 29.1974 332.021 28.9943 331.037 28.9526C329.854 28.9005 329.084 28.6245 328.776 28.1505C328.229 27.2964 327.297 27.1662 326.542 27.838C326.125 28.213 325.87 28.1245 325.412 27.4526C324.834 26.5985 324.813 26.5985 324.021 27.437C323.302 28.1974 323.104 28.2235 322.183 27.661C321.433 27.2026 321.349 27.036 321.88 27.062C322.323 27.088 322.542 26.8641 322.427 26.5099C322.224 25.8797 320.141 25.9266 320.104 26.562C320.089 26.7651 319.802 26.8016 319.459 26.6453C319.115 26.4891 318.948 26.1974 319.094 25.9943C319.235 25.7912 318.86 25.5985 318.261 25.562C317.656 25.5255 317.156 25.6922 317.141 25.9266C317.125 26.161 316.828 26.3328 316.474 26.3172C316.125 26.2964 315.849 26.0828 315.86 25.8485C315.875 25.6141 315.495 25.4005 315.016 25.3745C314.542 25.3432 314.058 25.0255 313.943 24.6662C313.828 24.3068 313.323 24.0047 312.818 23.9943C312.313 23.9839 312.136 24.0828 312.422 24.2182C312.709 24.3537 312.927 24.7234 312.906 25.0412C312.886 25.4787 312.568 25.5099 311.573 25.161C310.86 24.911 310.042 24.4839 309.755 24.2182C309.469 23.9526 308.886 23.8484 308.459 23.9839C308.016 24.1245 307.792 24.0672 307.938 23.8537C308.084 23.6453 307.547 23.4266 306.745 23.3589C305.86 23.2859 305.089 22.9266 304.766 22.4266C304.448 21.9318 304.021 21.7339 303.683 21.9162C303.36 22.0932 302.979 21.963 302.781 21.6089C302.563 21.2234 302.308 21.1453 302.089 21.4057C301.61 21.9734 300.568 21.8537 299.917 21.1557C299.516 20.7339 299.209 20.6922 298.787 21.0047C298.36 21.3224 297.776 21.2287 296.636 20.6714C295.063 19.9057 292.214 19.6453 291.755 20.2234C291.625 20.3901 291.24 20.3328 290.906 20.0932C290.396 19.7287 290.422 19.6662 291.047 19.6974C291.459 19.7182 291.808 19.5412 291.823 19.3068C291.86 18.6922 290.901 18.7287 289.828 19.3901C289 19.9005 288.729 19.8589 287.308 19.0307C286.433 18.5151 285.224 18.0828 284.625 18.062C283.724 18.0307 283.672 18.088 284.318 18.3849C284.953 18.6818 284.823 18.8068 283.558 19.1193C282.297 19.4266 282.068 19.3901 282.281 18.9162C282.427 18.5984 282.709 18.4578 282.912 18.6037C283.115 18.7443 283.302 18.4839 283.328 18.0203C283.36 17.4578 283.125 17.2026 282.625 17.2547C282.209 17.2964 281.563 17.1505 281.188 16.9266C280.636 16.6037 280.438 16.8016 280.146 17.9787C279.651 19.9682 278.839 20.3224 279.193 18.3901C279.49 16.7912 278.979 15.9995 278.136 16.7495C277.308 17.4891 275.245 17.1714 275.255 16.3068C275.261 15.8589 275.167 15.7703 275.016 16.0776C274.74 16.6662 272.87 16.687 272.552 16.1089C272.328 15.687 269.453 15.5984 269.005 15.9943C268.505 16.437 267.948 16.2234 268.297 15.7234C268.526 15.3953 268.396 15.3172 267.875 15.4839C267.453 15.6141 266.933 15.713 266.719 15.7026C266.151 15.6662 266.167 16.8537 266.74 17.0828C267.005 17.187 266.146 17.187 264.823 17.0828C262.505 16.9005 260.755 16.2078 262.933 16.338C264.61 16.437 264.287 15.312 262.578 15.0984C261.761 14.9943 260.959 14.8172 260.797 14.7026C260.636 14.588 259.589 14.7495 258.469 15.062C256.568 15.588 256.38 15.5724 255.646 14.8224C254.891 14.0516 254.849 14.0568 254.761 14.8328C254.703 15.2755 254.677 15.7859 254.693 15.963C254.709 16.1401 254.292 16.2599 253.761 16.2234C253.058 16.1766 252.964 16.0724 253.412 15.8224C253.906 15.5516 253.886 15.4057 253.308 15.0359C252.922 14.7912 252.677 14.4162 252.771 14.213C252.865 14.0047 252.584 13.7495 252.151 13.6401C251.636 13.5099 251.417 13.6453 251.521 14.0255C251.61 14.3484 251.365 14.8276 250.974 15.088C250.37 15.4995 250.448 15.588 251.547 15.687C252.625 15.7912 252.688 15.8537 251.948 16.0932C250.797 16.4734 249.771 16.2234 249.948 15.6037C250.031 15.3328 249.818 14.8016 249.479 14.4214C249.141 14.0412 249 13.5359 249.167 13.3016C249.344 13.0568 249.214 12.9422 248.865 13.0412C248.537 13.1349 248.297 13.5307 248.344 13.9162C248.401 14.4005 248.224 14.5255 247.787 14.3276C247.433 14.1714 247.13 14.2443 247.115 14.4995C247.099 14.7495 246.818 14.8328 246.49 14.687C246.162 14.5359 245.953 14.1922 246.037 13.9214C246.12 13.6505 246.094 13.5724 245.985 13.7443C245.875 13.9162 245.61 13.9318 245.391 13.7807C245.177 13.6297 244.703 13.7182 244.344 13.9839C243.99 14.2443 243.698 14.3484 243.709 14.2078C243.719 14.0672 243.219 14.1089 242.604 14.3016C241.995 14.4943 241.599 14.4995 241.735 14.3068C241.87 14.1141 241.016 13.9943 239.839 14.0359C238.063 14.1037 237.745 14.0099 237.985 13.4891C238.203 13.0099 238.016 12.8953 237.162 13.0099C236.162 13.1401 235.839 13.5151 235.933 14.437C235.948 14.6141 235.531 14.7287 235.005 14.6922C234.078 14.6245 234.073 14.6037 234.891 14.0568C235.714 13.5099 235.714 13.4787 234.974 13.1401C234.526 12.937 234.125 12.9891 234.016 13.2599C233.912 13.5203 233.578 13.6193 233.271 13.4787C232.922 13.3224 232.719 13.5151 232.729 13.9943C232.766 15.3016 231.49 15.0099 230.771 13.5464C230.136 12.2547 230.047 12.2078 229.485 12.8901C229.13 13.3172 228.667 13.4734 228.375 13.2703C228.058 13.0464 227.771 13.2391 227.589 13.8016C227.427 14.2859 227.136 14.6766 226.938 14.6609C226.735 14.6505 226.698 14.3589 226.854 14.0151C227.037 13.6245 226.891 13.3745 226.469 13.3537C226.063 13.3276 225.87 13.5568 225.99 13.937C226.136 14.3849 225.959 14.4787 225.354 14.2859C224.781 14.0984 224.443 14.2547 224.271 14.7912C224.058 15.4526 224.021 15.4318 224.026 14.6505C224.031 13.5099 222.49 12.9318 221.584 13.7339C221.229 14.0516 220.563 14.2912 220.11 14.2651C219.656 14.2391 219.276 14.3849 219.266 14.5932C219.219 15.3797 212.901 14.1297 212.406 13.2443C212.229 12.9214 211.86 12.9891 211.292 13.4474C210.823 13.8224 210.349 14.0255 210.24 13.9057C210.125 13.7807 210.021 13.963 210 14.3172C209.974 14.6974 210.354 14.9787 210.933 15.0151C211.469 15.0464 212.011 15.2703 212.141 15.5099C212.281 15.7703 211.839 15.9214 211.073 15.8797C210.354 15.838 209.755 15.9943 209.745 16.2287C209.729 16.463 210.021 16.6714 210.386 16.6922C210.755 16.7182 210.922 16.9162 210.761 17.1453C210.344 17.7339 209.214 17.5828 209.38 16.9578C209.469 16.6297 209.125 16.4526 208.469 16.4839L207.417 16.5412L208.49 15.5255C209.537 14.5359 209.417 14.3276 207.865 14.4422C207.719 14.4526 207.308 13.9526 206.953 13.338C206.334 12.2651 206.276 12.2495 205.755 12.9891C205.281 13.6557 205.339 13.7964 206.141 13.9891C207 14.1922 207.011 14.2339 206.266 14.5151C205.74 14.713 205.349 14.6193 205.146 14.2443C204.974 13.9266 204.198 13.5672 203.417 13.4422C202.516 13.2964 202.193 13.3589 202.542 13.6089C202.979 13.9266 202.943 14.0568 202.365 14.2391C201.11 14.6401 200.422 14.4266 200.438 13.6505C200.443 13.2026 200.344 13.1141 200.198 13.4214C200.063 13.713 199.224 13.9005 198.308 13.8484C196.651 13.7495 195.672 14.2912 196.651 14.7495C196.943 14.8901 196.776 14.9891 196.287 14.9839C195.058 14.9578 194.709 15.3693 195.292 16.1662C195.693 16.713 195.672 16.7912 195.156 16.588C194.813 16.4526 194.318 15.8641 194.063 15.2807C193.677 14.4057 193.584 14.3589 193.542 15.0099C193.5 15.5932 193.266 15.7391 192.662 15.5412C192.209 15.3901 191.844 15.3953 191.854 15.5464C191.922 16.437 191.656 16.5151 191.146 15.7599C190.63 14.9839 190.563 14.9734 190.516 15.6297C190.464 16.2339 190.276 16.2807 189.412 15.8953C188.594 15.5255 188.36 15.562 188.334 16.0568C188.313 16.4005 188.11 16.6766 187.88 16.6609C187.656 16.6505 187.568 16.9526 187.693 17.3432C187.88 17.9318 187.781 17.963 187.084 17.5359C186.625 17.2547 186.094 17.1557 185.901 17.312C185.714 17.4682 185.802 17.187 186.099 16.6922C186.839 15.4474 186.328 15.2391 183.823 15.7703C182.646 16.0203 181.839 16.2495 182.026 16.2807C182.219 16.312 182.235 16.5359 182.063 16.7755C181.87 17.0516 181.558 16.9162 181.219 16.4057C180.74 15.6922 180.672 15.6766 180.625 16.3016C180.578 16.8797 180.255 16.9474 178.875 16.6818C177.761 16.463 177.167 16.5203 177.151 16.8328C177.136 17.1037 176.74 17.2964 176.266 17.2703C175.797 17.2391 175.401 17.4109 175.391 17.6453C175.354 18.2599 174.188 18.1037 173.969 17.4526C173.828 17.0255 173.771 17.0255 173.719 17.4526C173.683 17.7547 173.985 18.1453 174.386 18.3172C175.422 18.7703 175.735 19.4734 175.172 20.0776C174.563 20.7287 173.906 20.3068 174.276 19.4943C174.646 18.6766 173.328 18.6089 172.443 19.4005C172.068 19.7287 171.323 19.9787 170.781 19.9474C170.245 19.9162 169.307 20.2339 168.698 20.6609C167.86 21.2443 167.474 21.3016 167.125 20.9109C166.433 20.1349 166.594 19.7026 167.552 19.7547C168.021 19.7859 168.422 19.6141 168.433 19.3797C168.448 19.1453 168.255 18.9422 168 18.9266C167.75 18.9109 167.63 18.4891 167.735 17.9839C167.87 17.3328 168.427 16.9474 169.667 16.6453C170.808 16.3641 171.084 16.1818 170.474 16.1193C168.729 15.937 167.308 16.6505 167.245 17.7495C167.172 18.9995 165.886 19.3797 165.063 18.3953C164.563 17.7859 164.578 17.7443 165.209 18.0255C165.599 18.2026 165.932 18.1662 165.948 17.937C165.99 17.1974 164.021 17.3901 163.011 18.2234C162.469 18.6714 162 19.4891 161.969 20.0412C161.901 21.2234 160.86 21.6818 159.766 21.0151C158.724 20.3745 158.068 20.3797 158.162 21.0203C158.203 21.3068 157.755 21.588 157.162 21.6401C156.568 21.6974 155.834 21.9214 155.526 22.1453C155.162 22.411 154.787 22.3953 154.459 22.1089C153.37 21.1662 152.573 21.0568 152.735 21.8745C152.823 22.3068 152.641 22.7964 152.339 22.9578C151.943 23.1714 151.875 23.0516 152.094 22.5672C152.412 21.8641 151.906 21.6401 150.146 21.7235C149.625 21.7495 149.469 21.5932 149.698 21.2651C149.922 20.9474 149.834 20.8224 149.448 20.9266C149.052 21.0359 148.865 21.6089 148.891 22.6245C148.927 23.8328 148.766 24.187 148.146 24.2807C146.896 24.463 145.459 23.9839 145.49 23.3953C145.516 22.9891 145.146 23.0047 143.979 23.4526C142.594 23.9839 142.521 24.0828 143.281 24.4162C143.745 24.6193 144.115 25.0151 144.094 25.2912C144.078 25.5984 144.422 25.5151 144.959 25.0828C145.781 24.4214 145.865 24.4266 146.078 25.1037C146.391 26.0828 146.136 26.2443 144.198 26.312C143.297 26.3432 142.474 26.5724 142.375 26.8224C142.151 27.3745 140.974 27.3589 141.011 26.8016C141.021 26.5776 141.229 26.2912 141.474 26.161C142.136 25.8016 142.047 25.2495 141.271 24.9005C140.849 24.7078 140.245 24.9057 139.724 25.4057C138.979 26.1141 138.959 26.2287 139.557 26.2651C140.771 26.3328 139.943 27.213 138.209 27.6974C137.011 28.0307 136.339 28.0255 135.839 27.6766C134.901 27.0099 132.281 28.1297 132.584 29.0724C132.709 29.4735 132.542 29.7078 132.141 29.6818C131.781 29.661 131.401 29.8589 131.297 30.1193C131.177 30.4162 130.745 30.4526 130.115 30.213L129.115 29.8276L130.125 29.3641C131.12 28.9057 131.12 28.8901 130.271 28.6141C129.573 28.3901 129.328 28.5724 129.063 29.5255C128.834 30.3328 128.531 30.6297 128.13 30.4474C127.276 30.0672 127.334 30.9787 128.198 31.6037C128.823 32.0568 128.792 32.088 127.943 31.8537C127.406 31.7078 126.865 31.8068 126.745 32.0776C126.615 32.3745 125.677 32.4943 124.396 32.3901C123.229 32.2912 122.261 32.338 122.255 32.4891C122.229 32.8641 119.537 33.7912 118.865 33.6557C118.573 33.5985 118.323 33.7755 118.307 34.0464C118.287 34.4057 118.13 34.411 117.745 34.0464C117.349 33.6766 117.026 33.7443 116.479 34.312C116.078 34.7339 115.865 35.2287 116.011 35.411C116.162 35.5932 116.063 35.6037 115.802 35.4318C114.505 34.588 113.625 36.1089 114.485 37.7026C114.651 37.9995 114.526 38.1089 114.172 37.9682C113.854 37.8432 113.568 37.1193 113.537 36.3641L113.485 34.9891L112.615 35.9162C112.136 36.4214 111.75 36.6245 111.761 36.3589C111.771 36.036 111.276 36.0672 110.266 36.4578C108.485 37.1401 108.542 37.6766 110.38 37.5724C111.094 37.5307 111.667 37.6818 111.656 37.9162C111.641 38.1453 111.266 38.312 110.818 38.286C110.182 38.2495 110.011 38.5151 110.021 39.4943C110.026 40.187 109.886 40.6505 109.703 40.5203C109.521 40.3953 109.36 40.4943 109.344 40.7443C109.334 40.9891 108.995 41.1766 108.594 41.1505C108.031 41.1193 107.99 41.0047 108.412 40.6297C109.307 39.8276 109.073 39.6662 107.068 39.7078C105.443 39.7443 105.063 39.9318 104.542 40.9474C104.146 41.713 103.49 42.2078 102.698 42.3328C102.021 42.4422 101.542 42.7599 101.63 43.036C101.724 43.3328 101.281 43.5464 100.542 43.5568C99.8544 43.5672 99.3908 43.4422 99.5002 43.2807C99.7658 42.9057 96.4481 42.7391 95.271 43.0672C94.7085 43.2287 94.1408 43.9995 93.7085 45.2026C93.3127 46.3068 92.8544 46.963 92.5992 46.786C92.3596 46.6141 92.2815 46.6922 92.4273 46.9578C92.5679 47.2182 92.344 47.5047 91.9221 47.588C91.3283 47.7078 91.3648 47.7651 92.094 47.8432C92.6096 47.9005 93.5419 47.4995 94.1617 46.9474C94.8335 46.3485 95.6877 46.0099 96.2658 46.1037C97.2554 46.2703 97.4637 45.7391 96.9637 44.312C96.8023 43.8432 97.0002 43.6349 97.62 43.6245C98.3179 43.6141 98.4429 43.786 98.1981 44.4214C97.9846 44.9787 98.0887 45.2443 98.5262 45.2703C98.8752 45.2912 99.2294 45.5516 99.3127 45.8537C99.396 46.1505 99.4325 46.0568 99.396 45.6453C99.3596 45.2287 99.5419 44.7755 99.7971 44.6401C100.057 44.4995 100.151 44.5516 100.011 44.7599C99.87 44.963 100.193 45.5047 100.729 45.9578C101.271 46.411 101.719 46.5828 101.735 46.338C101.75 46.088 101.521 45.8641 101.229 45.8328C100.938 45.8016 101.188 45.5932 101.792 45.3693C102.396 45.1453 103.031 45.0047 103.203 45.0516C103.38 45.0932 103.531 44.9474 103.542 44.7235C103.557 44.4995 103.896 44.4318 104.302 44.5828C104.703 44.7339 104.604 44.562 104.078 44.2026C103.323 43.687 103.245 43.4682 103.714 43.1505C104.818 42.3901 105.828 42.2703 105.792 42.9005C105.771 43.2912 106.172 43.4943 106.938 43.4891C107.698 43.4787 108.063 43.6662 107.969 44.0151C107.865 44.4214 108.151 44.4162 109.13 43.9787C109.849 43.6557 110.755 43.4162 111.156 43.4422C111.552 43.463 112.11 43.1974 112.396 42.8485C112.682 42.5047 113.349 42.213 113.875 42.2026C114.401 42.1922 114.844 41.9578 114.86 41.6766C114.875 41.4005 115.224 41.2755 115.636 41.411C116.052 41.5464 117.328 41.3172 118.474 40.9005C119.62 40.4891 120.693 40.1922 120.854 40.2495C121.016 40.3068 121.745 40.062 122.474 39.713L123.797 39.0724L122.552 38.9787C120.36 38.8224 121.761 38.4057 124.417 38.4266C125.828 38.437 127.344 38.2651 127.787 38.0516C128.531 37.687 128.516 37.6245 127.568 37.2078L126.547 36.7599L127.709 36.6089C128.516 36.4995 128.865 36.6349 128.844 37.036C128.797 37.7912 128.948 37.7807 130.61 36.9005C131.375 36.4943 132.261 36.2755 132.573 36.4162C132.891 36.562 133.162 36.463 133.177 36.2026C133.188 35.9422 133.599 35.7547 134.084 35.7807C134.568 35.812 135.401 35.6297 135.927 35.3745C136.459 35.1245 137.089 34.8953 137.323 34.8641C138.016 34.7703 145.005 32.9682 146.677 32.4474C149.464 31.5776 149.943 31.4422 150.584 31.3537C150.932 31.3068 151.453 30.9839 151.735 30.6453C152.047 30.2599 152.391 30.1818 152.62 30.4422C152.849 30.6974 153.662 30.6662 154.729 30.3537C155.688 30.0776 156.802 29.8589 157.219 29.8745C157.63 29.8849 157.979 29.687 157.99 29.4266C158.005 29.161 158.281 29.0724 158.604 29.2182C158.927 29.3641 159.328 29.3641 159.49 29.213C159.656 29.0672 160.021 28.9578 160.297 28.9682C161.11 29.0047 166.802 27.812 167.636 27.4318C168.058 27.2391 168.849 27.1089 169.401 27.1401C169.953 27.1766 170.537 27.0828 170.703 26.937C170.865 26.7912 171.537 26.6505 172.183 26.6245C172.834 26.5984 174.245 26.4266 175.318 26.2443C176.386 26.0568 179.886 25.588 183.089 25.2026C191.781 24.1557 191.834 24.1505 192.193 23.9578C192.375 23.8589 193.552 23.7339 194.813 23.6818C198.24 23.5412 199.891 23.4162 202.276 23.0985C203.464 22.9422 205.594 22.7755 207.011 22.7287C208.427 22.6818 211.422 22.5516 213.667 22.4318C219.005 22.161 221.156 22.1089 226.323 22.1557C228.677 22.1766 232.823 22.187 235.531 22.187C239.563 22.1818 244.943 22.2964 248.802 22.4578C253.042 22.6401 270.625 24.2964 275.433 24.9682C276.599 25.1297 279.568 25.5099 282.021 25.8068C284.479 26.0985 286.771 26.4578 287.115 26.5932C287.464 26.7339 288.99 26.9943 290.511 27.1818C292.031 27.3693 294.328 27.687 295.61 27.8953C296.896 28.1037 298.995 28.4318 300.281 28.6193C301.563 28.812 302.99 29.1557 303.448 29.3797C303.906 29.6037 305.901 30.1193 307.88 30.5151C309.86 30.9162 319.62 33.1297 320.781 33.3849C324.906 34.2807 330.073 35.7755 330.558 36.213C330.828 36.4578 331.245 36.5516 331.485 36.4214C332.224 36.0255 351.75 42.1245 355.719 43.9943C356.183 44.213 357.688 44.7807 359.073 45.2599C360.459 45.7443 362.214 46.463 362.974 46.8589C363.729 47.2599 364.849 47.7078 365.453 47.8537C366.943 48.213 367.24 48.4682 367.198 49.3172C367.167 49.911 367.24 49.937 367.584 49.4526C368.016 48.8485 367.953 48.8224 375.016 52.4787C375.979 52.9787 376.953 53.3953 377.188 53.4057C378.542 53.4891 395.745 64.3016 400.417 68.0151C401.406 68.8016 403.235 70.2182 404.474 71.161C405.714 72.1089 406.912 73.0985 407.13 73.3693C407.349 73.6349 408.448 74.6453 409.568 75.6141C411.683 77.437 418.641 85.3485 418.61 85.8901C418.599 86.062 419.094 86.8589 419.714 87.6714C421.516 90.0307 423.516 94.2182 424.292 97.2651C426.266 104.984 424.74 110.843 419.61 115.281C417.896 116.755 417.651 117.145 418.073 117.718C418.5 118.302 418.427 118.354 417.552 118.078C416.787 117.843 416.375 117.989 415.901 118.661C415.349 119.447 415.354 119.531 415.953 119.343C416.334 119.223 416.729 119.291 416.839 119.489C416.948 119.692 416.266 119.937 415.318 120.031C414.375 120.124 413.594 120.385 413.578 120.614C413.568 120.833 413.276 120.89 412.927 120.739C412.584 120.583 412.292 120.666 412.276 120.921C412.261 121.177 411.558 121.63 410.719 121.921C409.875 122.218 409.177 122.619 409.167 122.817C409.156 123.01 408.558 123.354 407.839 123.578C407.11 123.807 406.511 124.302 406.485 124.692C406.459 125.203 406.214 125.312 405.61 125.078C404.964 124.833 404.823 124.921 404.99 125.442C405.151 125.953 404.933 126.109 404.13 126.062C402.62 125.973 401.63 126.354 401.927 126.906C402.089 127.197 401.844 127.26 401.266 127.072C400.104 126.697 397.693 127.703 397.37 128.697C397.214 129.177 396.891 129.343 396.474 129.156C396.005 128.942 395.912 129.026 396.136 129.442C396.328 129.796 396.292 129.916 396.058 129.749C395.547 129.395 392.037 130.057 392.011 130.52C392 130.708 391.459 130.895 390.808 130.932C389.943 130.979 389.646 131.208 389.709 131.77C389.776 132.348 389.547 132.51 388.818 132.401C388.276 132.322 387.354 132.276 386.766 132.302L385.688 132.348L386.74 132.755C387.636 133.098 387.537 133.151 386.021 133.098C385.026 133.062 384.011 133.302 383.693 133.64C383.38 133.973 382.979 134.14 382.797 134.015C382.615 133.885 382.38 133.994 382.276 134.255C382.172 134.515 381.568 134.697 380.933 134.661C380.297 134.624 379.766 134.765 379.75 134.968C379.74 135.171 379.188 135.312 378.526 135.27C376.542 135.156 373.167 136.255 373.386 136.947C373.526 137.39 373.188 137.531 372.12 137.468C371.318 137.421 370.526 137.578 370.354 137.822C370.188 138.062 369.787 138.14 369.464 137.994C369.146 137.848 368.875 137.802 368.87 137.895C368.865 137.984 368.724 138.359 368.563 138.723C368.339 139.208 368.448 139.328 368.964 139.166C369.349 139.041 369.656 139.151 369.641 139.411C369.61 139.937 369.078 139.921 367.5 139.369C366.688 139.083 366.214 139.218 365.396 139.984C364.615 140.718 364.229 140.843 363.891 140.463C363.245 139.734 362.625 139.791 362.87 140.562C363.026 141.041 362.766 141.213 361.917 141.197C361.276 141.187 360.578 141.14 360.37 141.088C360.156 141.036 359.797 141.234 359.563 141.526C359.229 141.942 359.099 141.942 358.953 141.51C358.849 141.208 358.271 140.937 357.667 140.901C356.599 140.838 356.589 140.859 357.292 141.734C357.703 142.244 357.802 142.619 357.521 142.604C357.25 142.588 357.042 142.38 357.058 142.135C357.073 141.828 356.802 141.817 356.209 142.093C355.485 142.427 355.391 142.38 355.646 141.817C355.917 141.223 355.839 141.203 355 141.661C353.922 142.249 353.792 142.635 354.537 143.036C354.823 143.187 354.344 143.166 353.469 142.984C352.5 142.786 351.875 142.833 351.86 143.104C351.844 143.354 351.537 143.536 351.183 143.515C350.823 143.494 350.318 143.947 350.063 144.52C349.547 145.661 349.516 145.677 348.558 145.244C348.198 145.078 348.037 144.749 348.203 144.51C348.406 144.223 348.156 144.171 347.459 144.343C346.886 144.489 345.933 144.609 345.344 144.609C344.755 144.609 344.136 144.776 343.969 144.984C343.797 145.192 342.761 145.27 341.656 145.166C340.052 145.01 339.698 145.098 339.86 145.614C340.026 146.135 339.87 146.166 339.026 145.786C338.229 145.432 337.922 145.468 337.703 145.942C337.552 146.286 336.943 146.536 336.36 146.505C335.584 146.458 335.349 146.619 335.5 147.093C335.745 147.864 335.688 147.874 334.308 147.255C333.021 146.682 332.433 147.27 333.198 148.369C333.667 149.052 333.651 149.067 333.031 148.526C332.558 148.104 332.104 148.026 331.589 148.281C331.12 148.505 330.308 148.468 329.443 148.171C327.865 147.64 326.495 147.677 325.203 148.296C324.714 148.526 323.328 148.77 322.12 148.833C320.912 148.895 319.406 149.114 318.776 149.312C318.146 149.51 317.636 149.541 317.641 149.385C317.651 149.223 317.417 149.312 317.12 149.578C316.818 149.843 316.229 150.041 315.808 150.015C315.386 149.989 315.021 150.26 315 150.609C314.959 151.374 314.37 151.395 313.344 150.666C312.755 150.249 312.281 150.26 311.224 150.713C310.24 151.13 309.802 151.156 309.651 150.791C309.537 150.515 309.5 150.734 309.568 151.281C309.677 152.124 309.604 152.192 309.084 151.708C308.62 151.27 308.281 151.244 307.656 151.583C307.031 151.921 306.802 151.901 306.677 151.499C306.584 151.203 306.292 151.427 306.016 152.01C305.61 152.864 305.474 152.927 305.276 152.338C305.078 151.749 304.761 151.682 303.438 151.942C302.558 152.119 301.5 152.239 301.089 152.213C300.683 152.182 300.334 152.302 300.328 152.473C300.313 152.744 298.933 152.911 296.797 152.901C296.401 152.901 296.162 153.057 296.266 153.244C296.37 153.437 295.844 153.557 295.099 153.515C294 153.453 293.771 153.583 293.901 154.218C294.026 154.859 293.781 154.994 292.578 154.958C291.761 154.932 290.886 155.098 290.63 155.328C290.313 155.609 289.88 155.531 289.261 155.072C288.469 154.484 288.188 154.473 286.969 154.999C285.266 155.723 282.031 155.822 281.667 155.161C281.485 154.833 281.115 154.906 280.526 155.374C280.047 155.76 279.49 156.036 279.287 155.984C279.084 155.932 278.183 155.874 277.287 155.848C276.193 155.817 275.75 155.968 275.933 156.307C276.12 156.656 275.787 156.718 274.854 156.526C273.167 156.177 272.656 156.77 274.089 157.416C275.521 158.057 275.427 158.208 273.646 158.171C272.636 158.151 272.156 157.947 272.183 157.562C272.224 156.786 271.516 156.536 269.453 156.588C268.511 156.614 267.094 156.588 266.313 156.531C265.422 156.463 264.985 156.604 265.146 156.89C265.281 157.145 265.584 157.26 265.808 157.135C266.037 157.015 266.209 157.119 266.193 157.364C266.156 157.979 265.167 157.88 264.563 157.197C264.193 156.781 263.875 156.755 263.271 157.083C262.828 157.322 261.792 157.447 260.964 157.359C259.901 157.249 259.505 157.364 259.63 157.749C259.854 158.458 259.177 158.421 258.531 157.692C258.188 157.307 257.927 157.27 257.703 157.572C257.229 158.203 255.839 158.552 255.87 158.031C255.886 157.791 255.672 157.718 255.391 157.869C255.115 158.02 254.339 158.093 253.667 158.036C253 157.973 252.443 158.088 252.427 158.281C252.417 158.473 251.495 158.583 250.38 158.526C248.266 158.416 247.276 158.635 247.412 159.182C247.578 159.833 247.271 159.942 245.261 159.932C243.172 159.927 242.953 159.843 243.214 159.171C243.433 158.614 243.391 158.562 243.063 158.968C242.766 159.333 241.297 159.494 238.604 159.458C232.146 159.369 231.615 159.406 230.938 159.979C230.391 160.442 230.214 160.401 229.766 159.708C229.339 159.046 229.084 158.979 228.422 159.333C227.959 159.588 226.865 159.635 225.86 159.437C224.766 159.229 224.094 159.27 224.078 159.552C224.063 159.833 223.037 159.885 221.287 159.682C219.766 159.51 218.511 159.531 218.5 159.729C218.49 159.927 218.099 159.963 217.636 159.817C217.099 159.64 216.781 159.755 216.755 160.124C216.719 160.614 216.662 160.614 216.38 160.109C216.151 159.687 215.953 159.645 215.729 159.963C215.297 160.572 213.318 160.427 213.354 159.781C213.375 159.427 213.24 159.395 212.912 159.687C212.651 159.921 211.667 159.984 210.719 159.833C209.578 159.656 209.084 159.718 209.255 160.031C209.391 160.286 209.302 160.489 209.052 160.473C208.808 160.458 208.615 160.26 208.625 160.031C208.641 159.781 208.266 159.734 207.667 159.911C207.13 160.078 206.453 160.114 206.167 159.994C205.875 159.874 205.63 160.005 205.61 160.291C205.589 160.671 205.443 160.671 205.037 160.296C204.74 160.015 204.401 159.869 204.292 159.963C204.183 160.062 203.453 160.213 202.672 160.307C201.677 160.421 201.349 160.333 201.578 160.005C201.818 159.666 201.667 159.651 201 159.958C200.5 160.187 199.453 160.343 198.677 160.302C197.604 160.244 197.412 160.333 197.88 160.677C198.245 160.947 198.292 161.119 197.985 161.104C197.703 161.093 197.37 160.88 197.235 160.63C197.099 160.385 196.802 160.281 196.578 160.406C196.354 160.526 196.177 160.432 196.193 160.192C196.209 159.921 194.985 159.765 192.896 159.77C189.953 159.776 178.078 159.479 175.25 159.338C174.662 159.307 172.459 159.192 170.354 159.078C167.828 158.942 166.406 159.041 166.167 159.374C165.948 159.682 165.813 159.697 165.823 159.416C165.849 158.807 156.459 158.296 156.417 158.901C156.401 159.135 156.245 159.072 156.073 158.765C155.693 158.078 148.38 157.296 144.932 157.572C143.63 157.677 142.521 157.63 142.464 157.468C142.412 157.307 141.844 157.182 141.198 157.192L138.297 157.239C137.349 157.255 136.344 157.109 136.068 156.911C135.771 156.708 135.537 156.791 135.5 157.119C135.464 157.421 135.365 157.479 135.276 157.239C135.193 156.994 134.209 156.765 133.094 156.723C131.974 156.677 130.959 156.463 130.828 156.244C130.703 156.02 128.443 155.687 125.813 155.505C123.182 155.322 120.943 155.01 120.839 154.812C120.557 154.296 118.136 154.229 118.104 154.734C118.094 154.968 117.792 155.145 117.443 155.124C117.089 155.104 116.813 154.895 116.828 154.656C116.839 154.421 116.037 154.177 115.037 154.119C114.042 154.057 112.172 153.838 110.891 153.624C109.604 153.416 106.547 153.036 104.089 152.776C101.636 152.52 99.4273 152.124 99.1877 151.901C98.7919 151.531 96.4898 151.572 96.0575 151.953C95.9585 152.041 95.6252 151.828 95.3179 151.484C94.9898 151.109 94.1044 150.864 93.1565 150.88C92.2762 150.895 91.3648 150.744 91.1304 150.546C90.6252 150.114 89.469 149.833 84.4117 148.911C82.3231 148.531 79.7554 147.984 78.6981 147.692C77.6408 147.401 76.1096 147.067 75.2919 146.947C74.4742 146.833 72.8544 146.458 71.6981 146.124C70.5367 145.786 66.9377 144.744 63.6929 143.812C60.4481 142.874 56.094 141.458 54.021 140.661C51.9481 139.864 49.8544 139.187 49.3752 139.161C48.8908 139.135 48.3283 138.927 48.1148 138.703C47.9065 138.484 46.3127 137.734 44.5731 137.046C36.6408 133.895 28.2085 128.145 22.6148 122.078C21.2971 120.645 20.021 119.463 19.7815 119.447C19.5419 119.432 19.469 119.312 19.6252 119.177C19.7762 119.041 19.37 118.296 18.7242 117.52C18.0731 116.739 17.5575 115.885 17.5679 115.619C17.5835 115.354 17.1356 114.796 16.5679 114.374C16.0054 113.958 15.5679 113.234 15.594 112.77C15.62 112.307 15.4377 111.916 15.1929 111.901C14.9481 111.885 14.5783 111.286 14.3752 110.567C14.1669 109.848 13.8492 109.343 13.6669 109.442C13.4846 109.541 13.3544 109.036 13.3752 108.322C13.396 107.609 13.219 106.76 12.9742 106.432C12.7346 106.104 12.4742 105.479 12.396 105.036C12.3127 104.598 12.0262 103.067 11.7502 101.635C11.219 98.8537 11.1565 92.0776 11.6669 91.9057C11.8335 91.8485 12.1304 91.0828 12.3231 90.2078C12.5315 89.2547 12.5002 88.7026 12.2554 88.838C11.6044 89.187 11.7971 88.588 12.5471 87.9214C12.9221 87.588 13.2398 86.9943 13.2606 86.5985C13.2919 85.9839 13.2346 85.9682 12.844 86.4995C12.5315 86.9318 12.4012 86.9526 12.4169 86.5672C12.4325 86.2703 12.7398 85.9266 13.0992 85.812C13.4585 85.6974 13.771 85.3224 13.7919 84.9787C13.8127 84.6349 14.1356 84.0828 14.5106 83.7495C14.8856 83.4162 15.0835 82.9422 14.9533 82.7026C14.8179 82.4578 15.1512 81.9891 15.6877 81.6557C16.3075 81.2755 16.6044 80.7599 16.5002 80.2443C16.396 79.7287 16.8387 78.9474 17.7033 78.1297C18.4533 77.4162 18.8596 76.7443 18.6044 76.6453C17.745 76.3016 18.1877 75.5776 19.0783 75.8641C19.8335 76.1089 19.9429 75.9943 19.8283 75.1037C19.7346 74.3901 19.8856 74.0672 20.2971 74.088C20.6304 74.1089 20.7919 73.9214 20.6617 73.6766C20.5315 73.4318 20.7398 72.9526 21.1252 72.6037C21.521 72.2547 21.8231 72.187 21.8075 72.4474C21.7867 72.7912 22.021 72.8068 22.6825 72.5047C23.3075 72.2182 23.5158 71.8276 23.37 71.2443C23.1669 70.4578 23.5887 70.1974 24.646 70.4526C25.0887 70.562 27.1721 68.6037 27.2033 68.0464C27.219 67.8276 27.5158 67.661 27.87 67.6818C28.219 67.7026 28.5262 67.4422 28.5471 67.1037C28.5627 66.7703 28.9794 66.3953 29.4637 66.2703C30.37 66.0412 30.8127 65.713 34.719 62.4057C35.9533 61.3589 37.1721 60.5151 37.4325 60.5307C37.6877 60.5464 37.7971 60.2495 37.6773 59.8641C37.5158 59.3641 37.6773 59.2235 38.2554 59.3432C39.2137 59.5516 40.5731 58.9474 42.219 57.5932C42.8804 57.0464 43.6512 56.6141 43.9377 56.6297C44.219 56.6453 44.8179 56.2964 45.271 55.8485C45.7242 55.4057 46.344 55.0568 46.6512 55.0724C46.9585 55.0932 47.5835 54.7495 48.0419 54.312C48.5002 53.8745 50.3492 52.8589 52.1512 52.0568C58.0262 49.4422 59.2867 48.7599 59.9846 47.8276C60.3596 47.3224 60.8283 47.0203 61.021 47.1557C61.219 47.2912 63.1148 46.6037 65.2398 45.6245C73.5367 41.8016 87.0367 36.2807 91.5731 34.8537C92.5835 34.536 98.9377 32.2651 101.104 31.536C103.266 30.8068 105.771 29.8693 106.667 29.4578C107.563 29.0412 108.693 28.7234 109.177 28.7495C109.662 28.7807 110.401 28.6453 110.823 28.4578C112.349 27.7599 114.797 26.937 115.25 26.963C115.511 26.9787 115.729 26.8276 115.745 26.6193C115.755 26.4162 116.542 26.1714 117.49 26.0776C118.438 25.9787 119.219 25.7547 119.235 25.5724C119.245 25.3953 119.698 25.2339 120.245 25.2182C120.792 25.2078 122.365 24.7755 123.74 24.2599C125.115 23.7443 126.448 23.338 126.698 23.3537C126.953 23.3641 127.776 23.1505 128.537 22.8693C129.297 22.5932 131.146 22.088 132.651 21.7547C134.156 21.4162 135.49 20.9891 135.625 20.8016C135.755 20.6141 136.24 20.4839 136.698 20.5099C137.156 20.5359 137.875 20.4005 138.297 20.213C138.714 20.0203 140.922 19.3693 143.193 18.7703C148.61 17.338 149.271 17.1818 153.62 16.312C155.646 15.9057 157.459 15.3797 157.646 15.1349C157.834 14.8901 157.979 14.8172 157.974 14.9682C157.964 15.3016 162.36 14.5932 164.255 13.9526C164.974 13.713 166.235 13.4734 167.052 13.4266C167.87 13.3745 168.818 13.1297 169.156 12.8797C169.5 12.6297 170.386 12.437 171.13 12.4578C171.87 12.4734 172.776 12.3953 173.136 12.2755C174.245 11.9057 182.386 10.5412 185.037 10.2807C186.938 10.0932 191.672 9.51512 194.526 9.11407C197.302 8.72866 198.677 8.60366 202.927 8.34845C203.755 8.29637 204.729 8.17137 205.084 8.0672C206.089 7.77553 219.386 7.02553 224.214 6.98387C226.573 6.96303 229.084 6.90574 229.792 6.85887C230.5 6.80678 242.13 6.84324 243.073 6.82241C245.839 6.77032 264.219 7.80678 266.776 8.16095C268.063 8.33803 271.318 8.73387 274.005 9.03595C283.334 10.0828 302.505 13.9109 308.948 16.0151C309.641 16.2443 312.11 16.8641 314.438 17.3953C316.761 17.9266 319.13 18.6297 319.698 18.9578C320.271 19.2859 322.693 20.3016 325.089 21.2182C327.479 22.1349 329.761 23.2495 330.156 23.6922C330.552 24.1349 330.979 24.4005 331.115 24.2807C331.38 24.0464 336.568 27.2182 337.672 28.2912C338.058 28.6662 338.24 29.161 338.078 29.3953C337.906 29.6401 338.005 29.6974 338.313 29.5255C338.604 29.3693 339.068 29.4318 339.334 29.6662C339.604 29.9057 340.177 30.2443 340.61 30.4266C341.839 30.9526 335.813 24.713 334.089 23.6766C333.24 23.161 332.459 22.6141 332.349 22.4578C331.917 21.8224 327.084 18.8172 325.917 18.463C325.235 18.2495 324.578 17.9109 324.464 17.7078C324.344 17.4995 323.729 17.2599 323.099 17.1714C322.469 17.0828 321.964 16.8745 321.974 16.7078C321.99 16.4578 320.099 15.5464 318.433 14.9943C316.136 14.2391 314.073 13.6245 313.38 13.4943C312.912 13.4005 312.485 13.2807 312.433 13.213C312.375 13.1505 312.156 13.0672 311.943 13.0255C311.729 12.9839 311.417 12.7964 311.25 12.6089C311.089 12.4214 310.308 12.2339 309.521 12.187C308.735 12.1401 307.771 11.9005 307.375 11.6505C306.302 10.9682 299.417 8.95261 298.318 8.99949C297.792 9.02032 297.078 8.91095 296.729 8.75991C293.964 7.53595 293.255 7.42657 290.917 7.86928C290.292 7.98907 289.927 7.86928 289.948 7.55678C289.964 7.27553 289.86 7.15574 289.714 7.28074C289.568 7.41095 288.766 7.18178 287.927 6.77032C286.172 5.91616 285.308 5.69741 281.573 5.18699C280.084 4.98387 278.667 4.67657 278.427 4.50991C278.188 4.34324 276.063 4.02032 273.703 3.79637C271.344 3.5672 268.672 3.22866 267.766 3.04116C266.505 2.77553 266.021 2.84845 265.688 3.36407C265.453 3.73387 264.839 3.99428 264.323 3.95262L263.386 3.86928L264.37 3.54116C265.834 3.05157 265.584 2.65053 263.88 2.74949C263.052 2.79637 262.38 2.72866 262.391 2.59845C262.396 2.46303 261.297 2.32241 259.943 2.28595C255.745 2.16616 254.203 2.07762 249.802 1.68699C247.459 1.47866 245.292 1.47866 244.99 1.68699C244.61 1.9422 244.365 1.83803 244.214 1.35887C243.969 0.598448 241.959 0.24949 241.917 0.957824C241.906 1.1922 241.604 1.36928 241.255 1.34845C240.901 1.32762 240.62 1.16616 240.636 0.983865C240.662 0.483865 237.094 0.494282 236.011 0.994282C235.188 1.37449 235.099 1.33803 235.375 0.728657C235.636 0.155741 235.537 0.0776149 234.854 0.322407C234.391 0.494282 233.531 0.650533 232.938 0.681782C232.349 0.707825 231.865 0.754698 231.86 0.791157C231.86 0.822406 230.922 0.869282 229.776 0.890115C228.63 0.916158 227.584 1.02553 227.453 1.14532C227.323 1.25991 226.88 1.15053 226.469 0.895324C225.979 0.598449 225.62 0.582825 225.433 0.848449C225.271 1.07762 224.948 1.24949 224.714 1.23907C224.479 1.22345 224.438 0.999491 224.62 0.739074C224.87 0.384907 224.344 0.306782 222.63 0.426574C221.354 0.515115 218.766 0.561989 216.88 0.525532C214.438 0.478656 213.485 0.614074 213.547 0.994282C213.61 1.38491 213.151 1.43178 211.865 1.17137C210.813 0.963032 209.844 0.999491 209.49 1.25991C209.156 1.5047 208.891 1.59845 208.901 1.46824C208.906 1.33803 208.318 1.36407 207.589 1.53074C206.568 1.75991 206.214 1.68178 206.058 1.18699C205.943 0.81199 205.641 0.671366 205.349 0.848449C205.073 1.00991 204.177 1.10887 203.354 1.06199C202.38 1.0047 201.5 1.28595 200.823 1.8797C199.537 2.99949 199.219 2.99949 199.584 1.8797C199.808 1.17657 199.719 1.06199 199.13 1.28074C198.729 1.43178 197.87 1.49949 197.224 1.43699C196.584 1.36928 196.047 1.46824 196.037 1.66095C196.026 1.85366 195.49 1.89532 194.849 1.7547C193.943 1.55678 193.823 1.60887 194.302 1.98907C195.094 2.62449 194.464 2.60366 193.417 1.96824C192.719 1.53595 192.61 1.62449 192.505 2.66095L192.396 3.84845L191.917 1.68178L191.505 2.72866C191.094 3.76512 191.089 3.76512 190.959 2.80157C190.802 1.67137 189.953 1.41616 190.078 2.53595C190.12 2.95262 189.917 3.2547 189.625 3.21824C189.334 3.17657 188.604 3.08282 188.005 3.01512C187.287 2.93178 187.021 2.71303 187.219 2.36928C187.386 2.08282 187.25 2.12449 186.917 2.45782C186.552 2.82761 185.401 3.05678 183.985 3.04116C182.703 3.02553 181.505 3.22345 181.323 3.47866C181.141 3.73907 180.688 3.81199 180.308 3.64012C179.891 3.45262 179.641 3.53595 179.662 3.86407C179.745 5.08803 179.453 5.35366 177.849 5.51512C176.917 5.60887 175.849 5.95782 175.479 6.28595C175.104 6.61928 174.651 6.8797 174.469 6.86928C174.287 6.85887 174.386 6.63491 174.683 6.36928C175.511 5.6297 175.37 5.08282 174.406 5.27553C173.339 5.48907 173.276 4.81199 174.339 4.55157C174.755 4.45261 174.615 4.41095 174.021 4.46824C173.433 4.52032 172.459 4.67657 171.86 4.81199C171.266 4.9422 169.86 4.98387 168.74 4.89532C167.38 4.78074 166.401 4.95782 165.802 5.41616C165.308 5.79116 164.141 6.07761 163.203 6.05157C160.349 5.96824 160.224 6.00991 160.172 6.89012C160.11 7.9422 158.959 7.96303 158.75 6.91616C158.641 6.36407 158.568 6.42657 158.49 7.14532C158.401 8.02032 158.203 8.10887 156.823 7.91095C155.86 7.77032 155.188 7.8797 155.057 8.20262C154.943 8.48907 154.656 8.70782 154.417 8.69741C154.172 8.68178 154.099 8.40053 154.245 8.07241C154.427 7.67657 154.25 7.47866 153.735 7.48907C153.245 7.49428 153.021 7.73387 153.141 8.11407C153.287 8.57241 153.115 8.64532 152.469 8.40053C151.865 8.16616 151.443 8.29116 151.104 8.80678C150.813 9.24949 150.625 9.32241 150.636 8.98387C150.646 8.67657 150.464 8.52553 150.235 8.65574C150 8.78074 149.901 9.17137 150.011 9.52032C150.125 9.87449 149.995 10.1505 149.719 10.1349C149.448 10.1193 149.344 9.93178 149.49 9.72345C149.636 9.50991 149.568 9.20782 149.339 9.04116C149.104 8.8797 148.787 9.03074 148.63 9.37449C148.479 9.71824 148.11 9.89011 147.813 9.7547C147.511 9.61928 147.146 9.90574 146.979 10.4214C146.813 10.9318 146.49 11.1922 146.24 11.0151C145.995 10.8432 145.896 10.562 146.016 10.3849C146.136 10.213 145.959 10.0568 145.615 10.0359C145.271 10.0151 144.985 10.1141 144.979 10.2495C144.943 10.8797 141.505 11.6662 139.037 11.6141C138.412 11.6037 138.037 11.9109 137.901 12.5464C137.792 13.0724 137.443 13.4318 137.136 13.3432C136.823 13.2599 136.281 13.5151 135.932 13.9162C135.334 14.5984 135.313 14.5932 135.636 13.8068C135.823 13.3484 136.188 12.8328 136.453 12.6609C136.724 12.4787 136.459 12.3745 135.854 12.4109C135.104 12.4526 134.802 12.6974 134.86 13.2287C134.964 14.1505 134.724 14.1662 133.938 13.2807C133.136 12.3797 131.974 12.8016 131.906 14.0151C131.834 15.2026 130.781 15.6349 130.125 14.7443C129.75 14.2339 129.787 14.1089 130.302 14.1401C130.656 14.1609 131.073 13.8953 131.229 13.5516C131.386 13.2078 131.328 12.9109 131.099 12.9005C130.87 12.8849 130.672 13.088 130.656 13.3484C130.641 13.6089 130.349 13.6922 130.005 13.5359C129.662 13.3797 129.37 13.4318 129.354 13.6505C129.344 13.8641 128.651 14.1297 127.818 14.2339C126.985 14.3432 126.182 14.5984 126.042 14.8016C125.896 15.0047 125.578 15.0307 125.334 14.8589C125.089 14.687 124.995 14.7443 125.125 14.9839C125.443 15.5776 124.11 17.2026 123.344 17.1557C122.485 17.1089 122.594 16.7339 123.693 15.9474C124.62 15.2807 124.62 15.2755 123.766 15.2234C123.292 15.1974 123.005 15.3589 123.125 15.588C123.255 15.8224 122.917 15.8641 122.339 15.6818C121.781 15.5047 121.026 15.5255 120.662 15.7287C120.156 16.0099 120.276 16.1089 121.177 16.1714C121.823 16.2078 122.339 16.437 122.328 16.6714C122.297 17.1297 122.224 17.1505 120.578 17.2078C119.99 17.2287 118.922 17.3537 118.209 17.4891C117.495 17.6245 116.485 17.713 115.964 17.6766C115.443 17.6453 115.026 17.7443 115.037 17.8953C115.094 18.713 114.818 19.1557 114.136 19.3537C113.714 19.4734 113.125 19.6714 112.823 19.7912C112.464 19.937 112.38 19.7859 112.573 19.3484C112.771 18.9162 112.641 18.6766 112.188 18.6505C111.807 18.6245 111.49 18.8224 111.474 19.088C111.453 19.3953 110.985 19.4474 110.162 19.2339C109.245 18.9943 108.802 19.0724 108.604 19.5151C108.448 19.8537 108.156 20.0151 107.953 19.8693C107.755 19.7287 107.578 19.7964 107.563 20.0151C107.552 20.2391 106.474 20.4891 105.177 20.5776C103.422 20.6922 102.797 20.9057 102.771 21.4109C102.75 21.7912 102.625 21.9735 102.495 21.8276C102.156 21.4474 99.7242 22.2078 99.6929 22.6974C99.6825 22.9266 100.084 23.0099 100.594 22.8797C101.235 22.713 101.448 22.8068 101.297 23.1818C101.042 23.8276 99.2085 23.9266 99.3648 23.286C99.4221 23.036 99.1825 22.8849 98.8231 22.9578C98.4637 23.0307 97.844 23.0568 97.4481 23.0151C97.0471 22.9735 96.5835 23.3016 96.4169 23.7391C96.245 24.1818 95.5054 24.9162 94.7658 25.3797C93.5783 26.1245 93.3023 26.1505 92.396 25.5932C91.5262 25.062 91.3023 25.0568 90.9377 25.562C90.2554 26.5151 90.344 27.3432 91.1044 27.1037C91.495 26.9787 91.6617 27.062 91.495 27.2964C91.3387 27.5203 90.2606 27.6453 89.1044 27.5776C87.9429 27.5099 86.9794 27.6349 86.969 27.8589C86.9585 28.0828 86.5679 28.1662 86.0992 28.0464C85.6356 27.9266 85.245 27.9995 85.2346 28.2026C85.2242 28.4057 85.5054 28.6505 85.8648 28.7495C86.4012 28.8953 86.3544 29.0464 85.5992 29.6193C84.719 30.2807 84.6877 30.2755 84.7346 29.437C84.7658 28.9005 84.594 28.6662 84.2919 28.8276C84.021 28.9735 83.646 28.8172 83.4481 28.4787C83.1565 27.9735 83.021 27.9839 82.6408 28.5464C82.2242 29.1662 80.2242 29.8641 79.4742 29.6557C79.2971 29.6089 79.146 29.7807 79.1304 30.0412C79.1148 30.2964 78.8179 30.3849 78.4742 30.2287C78.094 30.0568 77.8335 30.1922 77.8127 30.5724C77.771 31.3068 76.6304 31.3537 76.4325 30.6297C76.2762 30.0412 74.3752 30.7651 74.3387 31.4266C74.3231 31.6453 74.0002 31.687 73.62 31.5099C73.0731 31.2651 72.9637 31.3901 73.1096 32.1193C73.2398 32.7755 72.9898 33.213 72.219 33.6557C71.6304 33.9943 70.9846 34.161 70.7919 34.0203C70.594 33.8849 70.2971 34.062 70.1356 34.4214C69.9429 34.8537 69.5575 34.9682 69.0002 34.7547C68.5419 34.5776 68.1512 34.6089 68.1356 34.8276C68.1252 35.0464 67.6408 35.1037 67.0575 34.9578C66.4585 34.8068 65.995 34.8901 65.9794 35.1557C65.9637 35.411 66.2919 35.5307 66.7085 35.4266C67.3492 35.2651 67.3283 35.338 66.5887 35.8745C66.1044 36.2234 65.469 36.4005 65.1773 36.2651C64.8804 36.1349 64.6304 36.1766 64.62 36.3537C64.6096 36.536 64.0262 36.6141 63.3283 36.5255C62.4117 36.4057 62.0419 36.5516 62.0106 37.0307C61.9898 37.3953 61.8596 37.5724 61.719 37.4162C61.5835 37.2599 60.9117 37.3797 60.2346 37.6818C59.5523 37.9839 58.7137 38.1037 58.3648 37.9474C58.0158 37.786 57.271 37.963 56.7085 38.3328C56.0835 38.7443 55.9742 38.9266 56.4221 38.8068C56.9481 38.661 57.0835 38.7807 56.8908 39.2078C56.5835 39.8901 56.0106 39.9682 55.6877 39.3693C55.4273 38.8849 53.745 39.161 53.719 39.6922C53.7033 39.9005 53.5523 40.0307 53.3752 39.9839C53.2033 39.9318 52.6669 40.0203 52.1877 40.1662L50.12 40.8068C49.4637 41.0099 49.021 41.3537 49.1408 41.5672C49.2606 41.786 48.9169 42.0985 48.3856 42.2599C47.5627 42.5099 47.521 42.6037 48.1044 42.8693C49.1512 43.338 48.87 44.4526 47.5783 44.9474C46.6252 45.3172 46.3544 45.2703 45.969 44.6714C45.6356 44.1557 45.2971 44.0516 44.7606 44.3172C44.1565 44.6089 44.0679 44.5307 44.3023 43.9266C44.5419 43.2912 44.4533 43.3068 43.745 44.0151C43.2815 44.4787 42.6669 44.7651 42.3856 44.6505C42.1044 44.536 41.8544 44.7339 41.8335 45.0932C41.8127 45.4474 41.3804 45.8432 40.87 45.9735C40.2502 46.1297 40.1044 46.3224 40.4273 46.5516C41.1356 47.0464 39.8283 47.911 38.9585 47.5203C38.4429 47.286 38.2658 47.4735 38.219 48.3224C38.146 49.4891 37.5262 49.5932 36.5679 48.5932C35.8231 47.812 35.1252 48.2807 35.4012 49.3745C35.594 50.1245 35.4846 50.2235 34.7398 49.9839C34.0679 49.7651 33.8387 49.8901 33.8023 50.5099C33.7762 50.9526 33.9481 51.3328 34.1825 51.3485C34.4169 51.3589 34.5992 51.5776 34.5835 51.8276C34.5679 52.088 34.1981 52.1453 33.719 51.963C33.219 51.7703 32.87 51.8328 32.8544 52.1193C32.8387 52.3901 32.6304 52.463 32.3856 52.2964C32.146 52.1245 31.521 52.3172 31.0054 52.7235C30.4846 53.1297 30.2294 53.2026 30.4377 52.8901C30.6981 52.5047 30.6304 52.3745 30.2137 52.4943C29.8804 52.588 29.6512 53.0047 29.6981 53.4214C29.7554 53.8849 29.6148 54.0464 29.3335 53.8537C29.0835 53.6766 28.3804 53.8172 27.7762 54.1662C27.1721 54.5099 26.5106 54.6818 26.3127 54.5412C26.1148 54.4005 25.969 54.7755 26.0002 55.3797C26.0419 56.1037 25.771 56.6037 25.2033 56.8641C24.4325 57.2182 24.4012 57.1766 24.8752 56.4005C25.1617 55.9318 25.2294 55.536 25.0262 55.5203C24.4429 55.4891 23.0315 57.0203 23.2554 57.4422C23.37 57.6453 22.9481 57.7755 22.3179 57.7339C21.5367 57.6766 21.0262 57.9474 20.6981 58.588C20.4377 59.1037 20.0731 59.5151 19.896 59.5047C19.719 59.4943 19.5575 59.6714 19.5471 59.9005C19.495 60.7495 20.8335 59.8589 20.9169 58.9839C20.969 58.4787 21.0887 58.3224 21.1929 58.6349C21.3387 59.0672 21.5315 59.088 22.0106 58.7339C22.3596 58.4839 22.6304 58.4526 22.6148 58.6714C22.5887 59.1818 20.0575 60.8432 19.12 60.9682C18.7294 61.0203 17.9742 61.0516 17.4429 61.0412C16.9169 61.0307 16.469 61.2182 16.4533 61.4682C16.4429 61.7182 16.6044 61.8224 16.8231 61.7078C17.0367 61.5932 17.4325 61.7964 17.7033 62.161C18.2137 62.8537 17.8387 63.0255 16.4273 62.7443C16.0419 62.6662 15.9221 62.8797 16.0731 63.3485C16.3075 64.088 15.344 65.2391 14.4012 65.3485C12.9637 65.5203 11.9585 65.9943 11.6721 66.6297C11.495 67.0203 11.5523 67.4162 11.7919 67.5151C12.0367 67.6141 12.219 67.963 12.1981 68.2964C12.1773 68.6974 11.6825 68.8745 10.7137 68.8172C9.82312 68.7651 9.15645 68.9735 8.98458 69.3589C8.79187 69.7755 8.96375 69.9995 9.50541 70.0307C9.94812 70.0568 10.4117 69.8432 10.5315 69.5568C10.6617 69.2495 10.9012 69.1974 11.1096 69.4318C11.3179 69.6662 11.2398 69.9005 10.9221 69.9943C10.6252 70.0776 10.3596 70.4266 10.344 70.7651C10.3179 71.2078 9.98979 71.2912 9.14604 71.0568C8.09395 70.7651 8.05229 70.7964 8.69812 71.3901C9.76062 72.3641 9.54187 72.588 8.04708 72.062C7.3075 71.8016 6.60958 71.6818 6.48979 71.786C6.36999 71.8953 6.495 71.9943 6.77104 72.0099C7.04187 72.0255 7.2502 72.3276 7.22937 72.6818C7.20854 73.0307 6.98979 73.3068 6.73979 73.2964C6.48979 73.2807 6.39604 73.4682 6.52625 73.7078C6.65645 73.9526 6.81791 74.536 6.88041 75.0151C6.96895 75.6714 6.76583 75.8641 6.03666 75.8224C5.51062 75.7912 4.85958 75.562 4.59395 75.3068C4.32833 75.0516 4.19812 74.9787 4.30229 75.1453C4.40645 75.3068 4.23458 75.7182 3.92208 76.062C3.44812 76.5828 3.47937 76.6453 4.12 76.4474C4.63041 76.2912 4.87 76.4162 4.84395 76.838C4.82312 77.1818 4.56791 77.4526 4.27625 77.4422C3.91687 77.4214 3.94812 77.5672 4.35437 77.8641C4.73458 78.1453 4.77624 78.3068 4.45854 78.2912C3.85958 78.2651 2.78666 81.1245 3.14083 81.786C3.28666 82.0568 3.10958 82.1089 2.69291 81.9214C2.1877 81.6974 1.98458 81.8432 1.94812 82.4474C1.92208 82.911 2.08874 83.3016 2.32312 83.312C2.97937 83.3537 2.73979 84.9057 1.97937 85.588C1.3752 86.1245 1.37 86.2703 1.9325 86.9005C2.32833 87.3432 2.38041 87.5985 2.0627 87.5828C1.78145 87.562 1.65645 87.8537 1.78145 88.2443C1.92208 88.687 1.8127 88.8537 1.47937 88.7078C1.1877 88.5828 1.03666 88.2182 1.13041 87.9005C1.22937 87.5776 1.15124 87.463 0.958537 87.6297C0.494995 88.0464 0.302287 89.6193 0.718953 89.6453C0.901246 89.6557 0.994995 90.187 0.932495 90.8328C0.708536 93.1141 0.85437 93.9318 1.48979 93.9682C1.84395 93.9891 2.12 94.1922 2.10437 94.4214C2.09395 94.6505 1.80229 94.7078 1.45854 94.5516C0.66687 94.1974 0.000204114 95.5568 0.718953 96.062C1.00541 96.2651 1.09916 96.6297 0.927287 96.8797C0.755412 97.1245 0.797078 98.0932 1.01583 99.0307C1.34395 100.416 1.66687 100.802 2.73458 101.109C3.45854 101.312 3.8075 101.562 3.50541 101.656C2.92208 101.848 3.06791 103.713 3.745 104.682C3.95333 104.979 3.98979 105.406 3.83354 105.63C3.27104 106.437 3.97937 108.312 5.02625 108.781C5.59916 109.036 5.95333 109.359 5.8075 109.489C5.4377 109.812 6.35437 110.781 7.42208 111.192C8.02625 111.421 8.22416 111.776 8.04708 112.312C7.8752 112.848 8.07312 113.203 8.67208 113.437C9.15645 113.619 9.79187 114.302 10.0835 114.947C10.6148 116.145 12.7606 118.182 13.5262 118.223C13.7554 118.239 14.0679 118.479 14.219 118.755C14.4117 119.114 14.1617 119.161 13.3752 118.911L12.2554 118.562L13.1252 119.692C13.6096 120.312 14.2085 120.833 14.4585 120.848C14.7137 120.864 15.1408 121.276 15.4065 121.76C15.6721 122.249 16.1773 122.661 16.5262 122.682C16.8752 122.703 17.1512 122.89 17.1408 123.098C17.1304 123.312 17.594 123.63 18.1721 123.812C18.8492 124.026 19.2033 124.442 19.1721 124.989C19.146 125.453 19.3596 125.874 19.6512 125.927C19.9429 125.979 20.37 126.083 20.6044 126.151C20.8335 126.218 21.5054 126.322 22.0887 126.39C22.8752 126.479 22.9898 126.598 22.5419 126.848C22.0575 127.119 22.1304 127.312 22.8908 127.776C23.4221 128.104 24.3179 128.854 24.8856 129.453C25.4533 130.052 26.3908 130.687 26.969 130.864C27.5471 131.046 28.4585 131.572 28.995 132.041C29.5262 132.505 30.1825 132.901 30.4481 132.916C30.7085 132.932 31.146 133.343 31.4117 133.828C31.6773 134.317 32.1565 134.729 32.4794 134.749C32.7971 134.765 33.2867 135.083 33.5575 135.453C33.8283 135.822 34.5158 136.151 35.0887 136.187C35.7294 136.223 36.0106 136.416 35.8179 136.692C35.6304 136.958 35.8231 137.114 36.3075 137.083C36.745 137.052 37.7502 137.364 38.5367 137.77C39.3231 138.182 40.4169 138.494 40.9585 138.468C41.5054 138.437 41.9377 138.64 41.9221 138.916C41.8648 139.869 52.2137 144.822 53.1773 144.307C53.4325 144.166 53.5731 144.281 53.495 144.562C53.344 145.062 54.0783 145.322 56.9065 145.786C57.6981 145.916 58.5054 146.343 58.6929 146.729C58.8908 147.14 59.5992 147.468 60.4012 147.515C62.4846 147.645 63.8544 148.182 63.1356 148.578C62.7294 148.807 62.8908 148.932 63.6669 148.979C64.2815 149.02 65.5471 149.369 66.4742 149.76C67.4012 150.151 68.2919 150.354 68.4533 150.208C68.6148 150.067 68.8648 150.145 69.0158 150.39C69.396 150.994 72.6096 151.984 75.995 152.531C77.5523 152.786 78.9221 153.166 79.0367 153.38C79.1512 153.588 79.4325 153.666 79.6565 153.541C79.8856 153.421 80.0575 153.499 80.0471 153.718C80.0315 153.937 80.5002 154.177 81.0835 154.26C81.6669 154.338 82.6044 154.463 83.1721 154.541C83.7294 154.619 84.094 154.817 83.9742 154.989C83.8544 155.161 84.396 155.338 85.1721 155.385C85.9481 155.432 87.2919 155.708 88.1512 156.005C89.0158 156.302 91.0731 156.682 92.7294 156.859C94.3804 157.031 95.8283 157.286 95.9533 157.427C96.2502 157.76 97.5262 157.359 97.9585 156.802C98.1669 156.536 98.2867 156.661 98.2606 157.109C98.219 157.994 98.3856 158.036 99.521 157.416C100.224 157.031 100.521 157.104 101.229 157.817C102.12 158.723 104.969 159.145 106.432 158.583C107.031 158.354 107.188 158.489 107.146 159.203C107.078 160.333 108.12 160.859 109.052 160.171C109.5 159.843 109.849 159.817 110.016 160.098C110.354 160.666 113.495 161.01 114.287 160.562C114.656 160.354 115.365 160.499 116.141 160.942C116.828 161.338 118.255 161.812 119.313 161.994C120.849 162.26 121.36 162.177 121.854 161.572C122.245 161.104 122.464 161.031 122.443 161.385C122.412 161.843 122.537 161.854 123.104 161.437C123.688 161.005 123.828 161.067 123.985 161.864C124.198 162.916 125.334 163.213 125.391 162.229C125.432 161.489 125.932 161.427 126.521 162.088C126.745 162.338 128.016 162.656 129.344 162.786C130.677 162.921 131.755 163.171 131.75 163.348C131.74 163.526 132.115 163.692 132.589 163.718C133.057 163.749 133.453 163.541 133.469 163.26C133.495 162.859 133.61 162.864 133.985 163.286C134.25 163.588 134.813 163.848 135.235 163.874C135.656 163.901 135.99 164.135 135.974 164.401C135.959 164.708 136.209 164.687 136.703 164.333C137.229 163.958 137.354 163.947 137.104 164.312C136.839 164.697 137.235 164.838 138.703 164.869C139.776 164.89 140.667 164.77 140.677 164.604C140.688 164.432 141.412 164.369 142.292 164.458C143.37 164.572 143.995 164.416 144.214 163.984C144.5 163.432 144.542 163.442 144.531 164.052C144.526 164.442 145.042 164.963 145.672 165.208C147.016 165.729 148.875 165.635 148.568 165.067C148.453 164.854 148.094 164.76 147.771 164.864C147.448 164.963 147.089 164.744 146.969 164.369C146.854 163.994 146.896 163.682 147.063 163.671C147.235 163.666 147.755 163.609 148.224 163.552C148.688 163.494 149.261 163.609 149.49 163.812C150.094 164.343 151.557 164.348 152 163.822C152.271 163.505 152.438 163.536 152.568 163.921C152.672 164.223 152.938 164.374 153.156 164.255C153.547 164.046 153.698 164.624 153.516 165.635C153.422 166.145 155.302 166.755 157.307 166.874C157.985 166.916 158.547 166.723 158.563 166.447C158.578 166.177 158.703 166.072 158.839 166.223C158.969 166.374 159.511 166.14 160.037 165.708C160.938 164.963 161 164.963 161.245 165.697C161.485 166.427 161.505 166.427 161.573 165.729C161.656 164.885 162.521 164.744 162.469 165.583C162.453 165.885 163 166.38 163.693 166.687C164.38 166.994 164.953 167.104 164.964 166.927C164.995 166.354 166.469 166.677 166.906 167.354C167.182 167.776 167.557 167.901 167.948 167.692C168.281 167.51 169.287 167.458 170.177 167.578C171.698 167.776 171.787 167.723 171.604 166.755C171.453 165.947 171.636 165.63 172.443 165.317C173.339 164.973 173.474 165.036 173.49 165.796C173.511 167.088 174.401 167.885 175.563 167.656C176.281 167.51 176.521 167.218 176.406 166.645C176.308 166.145 176.469 165.854 176.834 165.874C177.183 165.895 177.302 166.166 177.136 166.531C176.922 167.01 177.188 167.182 178.287 167.249C179.25 167.312 179.526 167.447 179.12 167.671C178.219 168.171 178.979 168.447 181.287 168.468C183.287 168.484 184.719 168.062 183.078 167.937C182.287 167.88 182.287 167.864 183.078 167.463C183.709 167.145 184.047 167.218 184.542 167.776C184.964 168.249 185.011 168.489 184.672 168.473C184.386 168.458 184.141 168.635 184.13 168.869L184.099 168.885C184.058 169.624 184.797 169.39 185.526 168.432C185.912 167.927 186.38 167.677 186.563 167.874C186.75 168.078 186.604 168.421 186.245 168.645C185.714 168.979 185.74 169.015 186.386 168.843C186.828 168.734 187.459 168.656 187.792 168.671C188.125 168.692 188.412 168.421 188.433 168.067C188.453 167.718 188.761 167.447 189.11 167.468C189.464 167.489 189.74 167.671 189.729 167.88C189.693 168.499 191.896 169.328 193.568 169.322C194.433 169.317 195.141 169.218 195.141 169.104C195.136 167.578 197.12 167.385 197.912 168.838C198.177 169.322 198.531 169.729 198.693 169.739C198.854 169.749 199.13 169.38 199.308 168.916C199.656 168.005 200.86 167.822 200.839 168.687C200.828 168.979 201.094 168.791 201.427 168.265L202.031 167.312L202.787 168.453C203.641 169.739 204.177 169.937 204.229 168.989C204.261 168.51 204.781 168.38 206.323 168.473C207.651 168.552 209.198 168.255 210.693 167.64C212.985 166.692 214.641 166.77 214.584 167.822C214.563 168.177 214.052 168.265 213.063 168.088C211.834 167.874 211.61 167.947 211.792 168.52C211.964 169.057 212.209 169.124 212.854 168.828C213.313 168.619 213.677 168.619 213.667 168.828C213.651 169.046 214.401 169.119 215.37 168.999C216.537 168.859 217.094 168.942 217.084 169.265C217.073 169.526 217.38 169.374 217.766 168.927C218.334 168.255 218.959 168.14 221.25 168.276C223.417 168.401 224.172 168.276 224.63 167.723C225.229 166.994 226.037 166.729 225.552 167.421C225.406 167.63 225.86 167.958 226.558 168.156C227.25 168.348 227.813 168.687 227.802 168.906C227.755 169.708 228.516 169.302 229.13 168.197C229.641 167.281 229.792 167.208 229.896 167.817C230.037 168.63 230.797 168.911 230.844 168.166C230.86 167.916 231.031 167.833 231.235 167.973C231.438 168.114 231.735 167.953 231.886 167.609C232.172 166.984 234.37 166.854 234.886 167.432C235.334 167.932 237.448 168.041 238.094 167.598C238.75 167.151 239.224 167.062 241.844 166.89L243.563 166.776L241.599 167.552C240.516 167.973 239.297 168.213 238.886 168.078C238.479 167.947 238.136 167.994 238.125 168.182C238.094 168.734 239.422 169.166 239.964 168.776C240.24 168.583 241.115 168.322 241.901 168.203C242.693 168.078 243.453 167.718 243.599 167.395C243.745 167.072 244.193 166.828 244.589 166.848C244.985 166.874 245.578 166.666 245.906 166.39C246.386 165.984 246.427 166.072 246.136 166.874C245.828 167.697 245.901 167.833 246.573 167.682C247.016 167.583 248.011 167.416 248.781 167.307C249.552 167.197 250.193 166.921 250.209 166.687C250.224 166.458 250.61 166.411 251.073 166.588C251.62 166.796 251.922 166.713 251.948 166.348C251.974 165.963 252.078 165.942 252.276 166.27C252.677 166.958 254.136 166.963 253.917 166.276C253.547 165.119 257.334 165.229 257.964 166.39C258.229 166.88 258.735 166.869 261.37 166.328C262.209 166.156 262.302 166.197 261.787 166.526C261.198 166.895 261.203 166.953 261.813 166.994C262.193 167.02 262.761 166.765 263.078 166.432C263.469 166.01 263.5 165.812 263.167 165.791C262.906 165.776 262.698 165.578 262.714 165.348C262.729 165.093 263.104 165.098 263.714 165.374C264.985 165.942 266.177 165.895 266.948 165.249C267.453 164.822 267.683 164.843 268.224 165.369C268.995 166.119 270.886 166.776 270.563 166.187C270.375 165.843 271.927 165.687 273.745 165.874C274.058 165.906 274.219 165.661 274.11 165.322C273.865 164.546 274.235 164.572 275.662 165.427C276.318 165.817 276.906 165.942 277.063 165.718C277.209 165.51 277.031 165.317 276.667 165.296C276.297 165.276 276.011 165.072 276.026 164.843C276.058 164.255 278.068 163.937 278.943 164.38C279.344 164.588 280.745 164.833 282.058 164.937C284.13 165.098 284.422 165.02 284.292 164.364C284.209 163.942 284.011 163.666 283.86 163.744C283.703 163.817 283.203 163.703 282.745 163.489C282.058 163.166 282.151 163.104 283.276 163.145C284.136 163.177 284.781 163.468 285.005 163.932C285.328 164.604 285.485 164.614 286.834 164.088C288.781 163.333 291.125 163.052 291.094 163.583C291.078 163.807 291.573 164.026 292.188 164.062C293.136 164.119 293.229 164.026 292.813 163.458C292.526 163.067 292.505 162.796 292.755 162.812C292.99 162.822 293.281 163.13 293.396 163.489C293.698 164.447 294.38 164.338 295.641 163.13C296.49 162.317 296.74 162.229 296.709 162.765C296.688 163.151 296.86 163.479 297.094 163.489C297.334 163.505 297.531 163.343 297.547 163.135C297.558 162.927 298.063 162.661 298.667 162.546C299.276 162.432 299.677 162.166 299.563 161.958C299.261 161.39 302.068 161.244 302.672 161.791C303.058 162.14 303.552 161.963 304.531 161.13C305.266 160.499 305.854 160.218 305.839 160.494C305.813 160.989 307.255 161.072 307.781 160.598C307.927 160.468 308.599 160.479 309.276 160.63C309.948 160.776 310.917 160.703 311.433 160.463C312.297 160.062 312.318 159.973 311.714 159.223C311.156 158.531 311.156 158.39 311.703 158.213C312.052 158.104 312.433 158.307 312.547 158.666C312.667 159.031 312.985 159.197 313.271 159.041C313.63 158.854 313.698 159.046 313.495 159.671C313.068 160.989 315.011 161.067 315.521 159.749C315.828 158.953 315.906 158.927 316.042 159.562C316.162 160.166 316.37 160.239 317.042 159.927C317.677 159.635 317.886 159.677 317.865 160.083C317.854 160.385 318.104 160.187 318.427 159.645C319.026 158.64 319.979 158.567 319.693 159.552C319.61 159.848 319.844 160.109 320.219 160.13C320.599 160.151 320.802 159.984 320.683 159.76C320.558 159.531 320.667 159.239 320.917 159.104C321.167 158.963 321.297 158.708 321.198 158.531C320.865 157.911 321.808 157.104 322.5 157.416C322.88 157.588 323.047 157.937 322.875 158.187C322.641 158.515 322.797 158.526 323.438 158.229C324.412 157.781 325.047 156.697 324.714 156.072C324.594 155.848 324.792 155.687 325.162 155.708C325.526 155.729 325.813 155.937 325.802 156.171C325.755 156.953 326.943 156.682 327.662 155.744C328.203 155.041 328.485 154.947 328.854 155.348C329.485 156.031 328.948 156.786 327.886 156.723C326.912 156.666 326.703 157.734 327.615 158.145C327.959 158.302 328.25 158.244 328.266 158.015C328.276 157.791 328.526 157.666 328.818 157.739C329.104 157.817 329.308 157.624 329.261 157.317C329.13 156.395 330.271 155.692 331.558 155.906C332.427 156.046 332.823 155.89 333.005 155.333C333.172 154.822 333.521 154.656 334.058 154.828C334.521 154.979 334.875 154.869 334.891 154.578C334.912 154.223 335.443 154.166 336.589 154.395C337.683 154.614 338.334 154.552 338.49 154.223C338.625 153.942 338.724 154.062 338.719 154.489C338.709 155.161 339.005 155.249 340.964 155.171C344.573 155.031 345.531 154.755 345.735 153.786C345.844 153.249 346.49 152.713 347.417 152.401C348.735 151.953 348.854 151.963 348.365 152.484C347.922 152.958 347.943 153.135 348.469 153.374C348.849 153.546 349.026 153.484 348.891 153.234C348.761 152.994 348.938 152.812 349.287 152.833C349.63 152.854 350 153.114 350.104 153.416C350.365 154.187 351.334 152.937 351.094 152.14C350.974 151.755 351.13 151.645 351.542 151.833C351.891 151.989 352.183 151.947 352.198 151.739C352.209 151.526 352.537 151.072 352.927 150.723C353.464 150.249 353.834 150.213 354.438 150.583C354.875 150.848 355.245 150.921 355.261 150.734C355.276 150.552 355.459 150.703 355.672 151.067C355.99 151.624 356.12 151.64 356.469 151.166C356.729 150.812 357.36 150.697 358.183 150.869C359.552 151.151 360.156 150.588 359.771 149.38C359.656 149.02 359.766 148.739 360.005 148.755C360.547 148.786 361.719 150.057 361.688 150.578C361.636 151.489 362.802 150.505 362.943 149.52C363.084 148.515 362.995 148.453 361.745 148.651C360.808 148.802 360.495 148.729 360.719 148.411C360.891 148.161 360.797 147.942 360.5 147.927C360.073 147.901 360.078 147.791 360.526 147.395C360.959 147.01 361.151 147.015 361.37 147.421C361.656 147.947 364.547 148.156 365.073 147.687C365.563 147.255 366.938 147.932 366.688 148.484C366.516 148.859 366.776 148.968 367.573 148.864C368.271 148.776 368.636 148.499 368.526 148.151C368.417 147.812 368.875 147.437 369.688 147.203C371.328 146.739 372.625 146.781 372.594 147.296C372.584 147.505 373.052 147.677 373.641 147.677C374.229 147.677 374.719 147.536 374.729 147.359C374.745 147.182 375.089 147.057 375.5 147.078C376.078 147.104 376.12 147.026 375.688 146.713C375.261 146.406 375.255 146.244 375.667 146.02C376.078 145.802 376.078 145.63 375.651 145.296C375.266 144.994 375.391 144.963 376.058 145.197C376.62 145.39 377.318 145.312 377.724 145.015C378.297 144.593 378.5 144.614 378.87 145.156C379.427 145.963 381.292 145.895 381.031 145.078C380.917 144.723 381.266 144.453 381.943 144.364C382.542 144.286 382.922 144.38 382.787 144.572C382.651 144.765 382.74 144.937 382.99 144.947C383.24 144.963 383.479 144.546 383.531 144.015C383.584 143.489 383.703 143.307 383.808 143.604C384.094 144.463 384.766 144.286 384.823 143.343C384.849 142.874 385.078 142.505 385.323 142.515C385.573 142.531 385.646 142.729 385.49 142.953C385.328 143.182 385.589 143.39 386.063 143.416C386.656 143.453 386.865 143.26 386.724 142.812C386.469 142.02 386.781 142.005 387.844 142.755C388.281 143.067 388.797 143.182 388.99 143.01C389.177 142.843 389.094 142.536 388.797 142.328C387.886 141.687 389.495 141.437 390.797 142.02C391.719 142.427 391.844 142.416 391.438 141.958C390.683 141.104 390.875 140.572 391.823 140.88C392.287 141.031 392.792 140.968 392.943 140.749C393.099 140.531 393.875 140.473 394.667 140.63C395.573 140.807 396.12 140.729 396.141 140.427C396.203 139.666 397.901 137.874 398.219 138.234C398.38 138.411 398.245 138.833 397.927 139.171C397.459 139.677 397.464 139.796 397.959 139.828C398.776 139.874 399.641 139.057 399.693 138.187C399.745 137.296 403.203 136.895 403.667 137.729C403.891 138.13 403.969 138.135 403.995 137.739C404.016 137.458 403.724 137.031 403.344 136.791C402.735 136.401 402.761 136.307 403.61 135.911C404.448 135.526 404.558 135.583 404.511 136.369C404.485 136.864 404.656 137.151 404.906 137.02C405.156 136.885 405.266 136.604 405.151 136.395C405.037 136.187 405.146 135.906 405.396 135.77C405.641 135.635 405.828 135.817 405.808 136.166C405.787 136.52 405.969 136.947 406.209 137.114C406.474 137.302 406.615 137.104 406.558 136.624C406.505 136.166 406.693 135.89 406.995 135.968C407.287 136.041 407.537 135.911 407.552 135.677C407.563 135.442 407.719 135.302 407.891 135.359C408.511 135.572 410.209 134.499 409.964 134.046C409.797 133.734 409.563 133.729 409.224 134.026C408.61 134.572 407.901 134.557 408.292 134.005C408.453 133.776 408.292 133.458 407.933 133.296C406.964 132.859 407.636 132.249 408.948 132.385C409.854 132.473 409.912 132.536 409.224 132.671C408.412 132.833 408.406 132.864 409.12 133.166C410.406 133.713 412.797 133.411 412.578 132.729C412.365 132.062 413.479 130.885 414.276 130.932C414.662 130.953 414.646 131.109 414.219 131.572C413.75 132.067 413.776 132.187 414.344 132.218C414.724 132.244 415.052 131.958 415.073 131.593C415.104 131.119 415.354 131.015 415.943 131.239C416.948 131.624 418.058 130.802 417.86 129.817C417.766 129.328 418.084 129.031 418.88 128.88C419.516 128.76 420.662 128.078 421.417 127.369C422.172 126.661 422.646 126.307 422.469 126.593C422.255 126.927 422.433 127.124 422.969 127.156C423.453 127.187 423.917 126.838 424.084 126.322C424.245 125.838 424.568 125.578 424.813 125.749C425.052 125.916 425.261 125.854 425.276 125.604C425.292 125.354 425.11 125.14 424.875 125.13C424.641 125.114 424.469 124.776 424.495 124.374C424.526 123.812 424.641 123.77 425.016 124.192C425.823 125.098 426.922 124.89 427.276 123.77C427.453 123.192 427.74 122.776 427.912 122.843C428.078 122.911 428.276 122.776 428.349 122.546C428.422 122.317 428.261 122.114 427.99 122.098C427.719 122.083 427.469 121.744 427.433 121.348C427.38 120.76 427.63 120.687 428.787 120.947C430.073 121.234 430.235 121.151 430.568 120.052C430.771 119.385 431.146 118.604 431.406 118.312C431.745 117.932 431.662 117.567 431.125 117.015C430.412 116.281 430.401 116.286 430.891 117.02ZM95.4794 44.1089C95.0315 44.0464 94.7554 43.8589 94.8752 43.6922C95.0731 43.411 96.3283 43.7495 96.3075 44.0776C96.3075 44.1557 95.9325 44.1662 95.4794 44.1089ZM111.266 42.2912C110.802 41.7703 111.016 41.2755 111.682 41.3172C112.031 41.338 112.302 41.6401 112.287 41.9943C112.245 42.661 111.729 42.812 111.266 42.2912ZM112.391 38.2599C112.323 38.7807 112.115 39.2026 111.927 39.1922C111.485 39.1662 111.542 38.6714 112.084 37.9214C112.427 37.437 112.49 37.5099 112.391 38.2599ZM118.021 40.0828C117.672 40.4734 117.318 40.7912 117.229 40.786C116.88 40.7651 117.125 40.4266 117.87 39.911C118.578 39.4162 118.589 39.437 118.021 40.0828ZM122.62 33.7599C122.63 33.5568 123.12 33.4214 123.709 33.4526C124.297 33.4891 124.771 33.5932 124.766 33.6818C124.761 33.7703 124.271 33.9057 123.677 33.9839C123.084 34.062 122.61 33.963 122.62 33.7599ZM124.302 38.1974C123.917 38.1766 123.787 37.9162 123.959 37.536C124.115 37.1922 124.412 36.9214 124.62 36.9318C124.834 36.9474 124.985 37.2443 124.969 37.5985C124.948 37.9474 124.646 38.2182 124.302 38.1974ZM130.125 36.1766C129.823 36.4422 129.349 35.9057 129.38 35.338C129.396 35.0724 129.594 35.1089 129.886 35.4318C130.146 35.7287 130.255 36.062 130.125 36.1766ZM130.427 32.1349C130.193 32.1193 130.016 31.812 130.037 31.4422C130.057 31.0776 130.261 30.9057 130.49 31.0672C130.714 31.2234 130.891 31.5359 130.875 31.7547C130.865 31.9787 130.662 32.1453 130.427 32.1349ZM133.542 30.7182C132.823 30.8641 132.662 30.7964 132.995 30.4995C133.255 30.2651 133.719 30.1714 134.021 30.2912C134.334 30.4214 134.13 30.5985 133.542 30.7182ZM134.834 29.9943C134.839 29.937 135.438 29.6297 136.162 29.3224C137.203 28.8745 137.474 28.8745 137.448 29.3172C137.427 29.6245 136.834 29.9266 136.12 29.9891C135.412 30.0516 134.834 30.0568 134.834 29.9943ZM137.88 34.4005C137.485 34.5255 137.052 34.4266 136.917 34.1766C136.573 33.5412 136.86 33.4266 137.792 33.8276C138.5 34.1297 138.511 34.2026 137.88 34.4005ZM143.459 29.0412C143.224 29.0255 143.047 28.812 143.057 28.562C143.073 28.3172 143.271 28.2443 143.5 28.4005C143.724 28.562 143.906 28.7755 143.896 28.8797C143.891 28.9839 143.693 29.0568 143.459 29.0412ZM147.313 25.411C147.156 25.6401 146.943 25.8172 146.839 25.812C146.735 25.8068 146.662 25.6089 146.672 25.3745C146.688 25.1401 146.901 24.9578 147.151 24.9735C147.401 24.9891 147.474 25.187 147.313 25.411ZM150.469 22.7547C150.11 22.8693 149.823 22.7755 149.839 22.5464C149.849 22.3224 150.151 22.1505 150.5 22.1714C150.854 22.1922 151.141 22.2859 151.136 22.3797C151.13 22.4682 150.828 22.6401 150.469 22.7547ZM153.667 26.6401C153.511 26.8641 153.188 27.0412 152.953 27.0255C152.719 27.0151 152.656 26.8172 152.813 26.588C152.974 26.3641 153.297 26.1922 153.531 26.2026C153.766 26.2182 153.828 26.4162 153.667 26.6401ZM165.146 20.8849C164.787 21.3953 164.438 21.3797 163.651 20.8016C163.172 20.4474 163.302 20.3641 164.235 20.4109C164.927 20.4474 165.313 20.6505 165.146 20.8849ZM178.391 19.588C178.104 19.8432 177.875 19.7495 177.74 19.312C177.485 18.5151 178.193 17.9995 178.573 18.7026C178.719 18.9734 178.636 19.3693 178.391 19.588ZM180.61 19.6141C180.11 19.5672 180.016 19.4578 180.365 19.3432C180.677 19.2391 181.047 19.2755 181.183 19.4214C181.313 19.5724 181.058 19.6609 180.61 19.6141ZM181.594 17.9943C181.438 18.2182 181.235 18.4005 181.141 18.3953C181.052 18.3901 180.87 18.187 180.74 17.9422C180.61 17.7026 180.813 17.5203 181.193 17.5412C181.573 17.562 181.755 17.7651 181.594 17.9943ZM185.089 16.9109C184.922 17.1453 184.594 17.2026 184.36 17.0359C184.089 16.8484 184.016 17.0724 184.167 17.6609C184.485 18.9057 183.729 18.8016 183.24 17.5359C182.886 16.6193 182.959 16.5255 184.12 16.5047C184.906 16.4943 185.271 16.6453 185.089 16.9109ZM190.49 18.2703C189.865 18.4682 189.818 18.4162 190.261 18.0203C190.568 17.7443 190.922 17.6349 191.042 17.7703C191.167 17.9109 190.917 18.1349 190.49 18.2703ZM202.641 17.0828C202.485 17.3068 202.162 17.4839 201.927 17.4682C201.688 17.4526 201.63 17.2599 201.787 17.0307C201.948 16.8068 202.266 16.6297 202.5 16.6453C202.74 16.6609 202.802 16.8537 202.641 17.0828ZM224.255 17.0464C223.558 17.0203 222.615 16.1714 222.651 15.5932C222.662 15.4057 222.896 15.2651 223.167 15.2807C223.443 15.2964 223.526 15.437 223.349 15.5932C223.177 15.7443 223.459 16.1401 223.979 16.4682C224.61 16.8693 224.703 17.0568 224.255 17.0464ZM226.016 16.7287C225.349 17.4109 225.11 17.4891 225.141 17.0151C225.177 16.3172 226.412 15.2078 226.735 15.5776C226.844 15.6974 226.516 16.213 226.016 16.7287ZM228.011 16.3068C227.86 16.4422 227.771 16.1818 227.818 15.7339C227.87 15.2391 227.974 15.1401 228.089 15.4891C228.193 15.8068 228.156 16.1714 228.011 16.3068ZM230.193 14.838C229.839 14.8172 229.568 14.5151 229.589 14.1714C229.61 13.7912 229.87 13.6557 230.25 13.8276C230.594 13.9839 230.87 14.2807 230.854 14.4943C230.844 14.7026 230.547 14.8589 230.193 14.838ZM233.469 16.0359C232.761 15.6974 233.365 14.5984 234.078 14.9214C234.406 15.0672 234.656 15.4578 234.636 15.7859C234.599 16.3953 234.334 16.4526 233.469 16.0359ZM236.834 14.7964C236.599 14.7807 236.422 14.5776 236.433 14.3432C236.448 14.1089 236.651 13.9318 236.886 13.9422C237.12 13.9578 237.302 14.1609 237.287 14.3953C237.276 14.6297 237.068 14.812 236.834 14.7964ZM245.188 14.8537C245.026 15.0828 244.813 15.2599 244.709 15.2547C244.604 15.2495 244.531 15.0516 244.547 14.8172C244.558 14.5828 244.776 14.4057 245.021 14.4162C245.271 14.4318 245.349 14.6297 245.188 14.8537ZM280.401 20.7651C280.052 20.7443 279.771 20.5412 279.787 20.3172C279.797 20.088 280.089 20.0307 280.433 20.187C280.781 20.338 281.058 20.5412 281.052 20.6349C281.047 20.7287 280.755 20.7859 280.401 20.7651ZM284.724 20.1609C284.37 20.1401 284.094 19.9318 284.104 19.6974C284.12 19.463 284.417 19.2859 284.771 19.3068C285.125 19.3276 285.401 19.5359 285.386 19.7755C285.375 20.0099 285.073 20.1818 284.724 20.1609ZM293.63 21.0776C293.136 21.0255 293.037 20.9214 293.386 20.8016C293.703 20.6974 294.068 20.7339 294.203 20.8849C294.339 21.0359 294.078 21.1245 293.63 21.0776ZM303.198 22.8849C302.61 22.8537 302.38 22.7391 302.677 22.6401C302.979 22.536 303.459 22.5672 303.745 22.7026C304.031 22.838 303.787 22.9214 303.198 22.8849ZM310.433 26.7703C309.938 26.7182 309.844 26.6089 310.193 26.4943C310.505 26.3901 310.875 26.4266 311.005 26.5776C311.141 26.7287 310.886 26.812 310.433 26.7703ZM315.255 27.9422C315.063 27.9266 314.917 27.6297 314.938 27.2807C314.959 26.9266 315.136 26.6505 315.334 26.661C315.526 26.6714 315.672 26.9682 315.651 27.3224C315.63 27.6714 315.453 27.9526 315.255 27.9422ZM327.688 28.6662C327.438 28.6505 327.365 28.4526 327.521 28.2287C327.683 27.9995 327.896 27.8224 328 27.8276C328.104 27.8328 328.177 28.0307 328.162 28.2651C328.151 28.4995 327.933 28.6818 327.688 28.6662ZM338.964 33.6089C338.714 33.5932 338.641 33.3953 338.802 33.1714C338.959 32.9422 339.177 32.7599 339.276 32.7703C339.38 32.7755 339.453 32.9734 339.443 33.2078C339.427 33.4422 339.214 33.6193 338.964 33.6089ZM267.469 3.43699C268.136 3.52553 268.599 3.71303 268.5 3.85366C268.11 4.41616 266.62 4.42657 266.443 3.86407C266.308 3.44741 266.604 3.32241 267.469 3.43699ZM241.88 1.8172C242.115 1.83282 242.297 2.03595 242.281 2.27032C242.266 2.5047 242.063 2.68699 241.828 2.67137C241.594 2.65574 241.412 2.45261 241.427 2.21824C241.443 1.98387 241.646 1.80678 241.88 1.8172ZM130.214 15.9162C130.875 16.3224 130.912 16.4839 130.422 16.7547C129.651 17.1818 128.302 17.1349 128.328 16.6818C128.38 15.838 129.401 15.4214 130.214 15.9162ZM126.281 14.9839C126.526 14.8484 126.714 15.0412 126.693 15.4057C126.646 16.1557 126.386 16.2495 126.052 15.6349C125.932 15.4109 126.031 15.1141 126.281 14.9839ZM107.031 21.9422C107.026 22.0047 106.745 22.0464 106.401 22.0255C106.057 22.0047 105.891 21.8328 106.026 21.6401C106.235 21.3432 107.052 21.5932 107.031 21.9422ZM104.844 21.5985C105.188 21.8432 105.229 22.0932 104.964 22.2391C104.724 22.3693 104.302 22.1766 104.037 21.8068C103.5 21.0828 103.959 20.963 104.844 21.5985ZM91.37 25.9995C91.3804 25.7651 91.5992 25.5828 91.844 25.5985C92.094 25.6141 92.1669 25.812 92.0106 26.036C91.8492 26.2651 91.6356 26.4422 91.5315 26.437C91.4273 26.4318 91.3544 26.2339 91.37 25.9995ZM91.1304 28.6922C91.4481 28.5828 91.8127 28.6193 91.9481 28.7703C92.0835 28.9214 91.8231 29.0099 91.3752 28.963C90.8804 28.9109 90.7815 28.8068 91.1304 28.6922ZM59.5627 38.7026C59.7242 38.4735 59.9377 38.2964 60.0419 38.3016C60.146 38.3068 60.219 38.5047 60.2033 38.7391C60.1929 38.9735 59.9794 39.1557 59.7294 39.1401C59.4794 39.1245 59.4065 38.9266 59.5627 38.7026ZM57.5679 41.7547C57.6825 41.6557 58.0002 41.8797 58.2762 42.2547C58.5887 42.6818 58.6096 42.9266 58.3231 42.911C57.8075 42.8797 57.2554 42.036 57.5679 41.7547ZM50.1512 43.0151C50.7242 42.4005 51.8544 42.3276 51.8231 42.911C51.8075 43.1141 51.3127 43.3485 50.7137 43.4266C49.8387 43.5412 49.7294 43.463 50.1512 43.0151ZM42.5783 45.8849C43.1617 45.6141 43.3752 45.661 43.3544 46.0412C43.3387 46.3328 42.969 46.5776 42.5367 46.588C41.5367 46.6037 41.5523 46.3589 42.5783 45.8849ZM41.2346 48.1193C41.4585 48.2807 41.6408 48.4943 41.6356 48.5985C41.6304 48.7026 41.4325 48.7755 41.1981 48.7599C40.9637 48.7495 40.7815 48.5307 40.7971 48.286C40.8075 48.036 41.0054 47.963 41.2346 48.1193ZM38.0575 51.5776C38.3075 51.588 38.3804 51.786 38.219 52.0151C38.0627 52.2391 37.8492 52.4214 37.745 52.4162C37.6408 52.4057 37.5679 52.213 37.5835 51.9787C37.594 51.7391 37.8075 51.562 38.0575 51.5776ZM29.62 56.2235C29.8544 56.2339 30.0367 56.437 30.021 56.6714C30.0106 56.9057 29.8075 57.088 29.5731 57.0776C29.3335 57.062 29.1565 56.8589 29.1669 56.6245C29.1825 56.3901 29.3856 56.2078 29.62 56.2235ZM17.0054 77.3224C17.3752 77.3432 17.6617 77.5568 17.6512 77.7912C17.6356 78.0255 17.4429 78.2078 17.2242 78.1922C17.0002 78.1818 16.7137 77.9682 16.5835 77.7287C16.4481 77.4839 16.6408 77.3016 17.0054 77.3224ZM4.61479 80.8797C4.38041 80.8693 4.19812 80.6505 4.21375 80.4057C4.22937 80.1557 4.42729 80.0828 4.65125 80.2391C4.88041 80.4005 5.0575 80.6141 5.05229 80.7182C5.04708 80.8224 4.84916 80.8953 4.61479 80.8797ZM85.6512 154.979C85.12 154.947 84.6981 154.734 84.7137 154.499C84.745 153.963 85.1981 153.994 85.995 154.572C86.495 154.942 86.4273 155.015 85.6512 154.979ZM139.719 162.843C139.292 163.156 139.047 163.171 139.063 162.89C139.094 162.374 139.938 161.822 140.219 162.135C140.318 162.249 140.094 162.567 139.719 162.843ZM157.302 166.015C156.834 165.989 156.459 165.776 156.474 165.541C156.49 165.307 156.886 165.135 157.354 165.166C157.823 165.192 158.198 165.406 158.182 165.64C158.167 165.874 157.771 166.046 157.302 166.015ZM166.979 166.01C166.589 165.989 166.167 165.791 166.052 165.572C165.677 164.88 166.193 164.807 166.959 165.442C167.62 165.989 167.62 166.046 166.979 166.01ZM169.948 165.906C169.792 166.124 169.479 166.302 169.261 166.286C168.646 166.249 168.797 165.953 169.552 165.713C169.943 165.588 170.11 165.671 169.948 165.906ZM187.266 166.484C187.031 166.468 186.849 166.265 186.865 166.031C186.88 165.796 187.084 165.619 187.318 165.63C187.552 165.645 187.729 165.848 187.719 166.083C187.703 166.317 187.5 166.499 187.266 166.484ZM199.703 167.265C199.068 167.145 198.797 167.255 198.964 167.557C199.104 167.822 199.125 168.031 199.011 168.026C198.448 167.994 198.38 167.067 198.906 166.624C199.651 165.999 201.87 165.843 201.839 166.421C201.797 167.088 200.813 167.479 199.703 167.265ZM213.776 166.208C213.344 166.213 212.995 166.062 213.011 165.869C213.021 165.677 213.386 165.447 213.823 165.359C214.261 165.27 214.604 165.427 214.589 165.697C214.573 165.968 214.209 166.197 213.776 166.208ZM215.604 168.531C215.104 168.484 215.011 168.374 215.36 168.26C215.677 168.156 216.042 168.192 216.177 168.343C216.308 168.494 216.052 168.578 215.604 168.531ZM229.74 165.984C229.141 165.614 228.771 165.645 228.266 166.093C227.891 166.427 227.24 166.661 226.813 166.624C226.162 166.562 226.198 166.484 227.026 166.14C227.568 165.916 228.021 165.572 228.031 165.374C228.047 165.171 228.63 165.046 229.334 165.088C230.203 165.135 230.604 165.374 230.578 165.817C230.547 166.333 230.37 166.369 229.74 165.984ZM237.104 160.828C237 160.822 236.813 160.619 236.677 160.374C236.547 160.135 236.646 159.947 236.891 159.963C237.141 159.973 237.334 160.177 237.318 160.416C237.308 160.651 237.209 160.838 237.104 160.828ZM246.219 165.182C245.719 165.13 245.625 165.026 245.974 164.911C246.292 164.807 246.656 164.843 246.792 164.989C246.922 165.14 246.667 165.229 246.219 165.182ZM248.115 161.031C247.042 160.953 247 160.895 247.703 160.427C248.125 160.145 248.354 159.776 248.214 159.614C248.068 159.453 248.073 159.328 248.224 159.338C248.37 159.348 248.672 159.749 248.896 160.234C249.261 161.015 249.172 161.104 248.115 161.031ZM259 166.359C258.505 166.307 258.412 166.203 258.761 166.083C259.073 165.979 259.443 166.015 259.573 166.166C259.709 166.317 259.448 166.401 259 166.359ZM272.584 165.041C272.099 165.015 271.828 164.812 271.985 164.598C272.229 164.244 273.495 164.52 273.474 164.927C273.469 165.02 273.068 165.072 272.584 165.041ZM278.813 157.854C278.37 157.994 278.177 157.791 278.209 157.218C278.235 156.76 278.547 156.395 278.896 156.416C279.25 156.437 279.521 156.723 279.505 157.052C279.485 157.38 279.172 157.739 278.813 157.854ZM293.568 161.984C293.219 161.963 292.933 161.874 292.938 161.781C292.943 161.687 293.24 161.52 293.604 161.406C293.964 161.291 294.245 161.385 294.235 161.609C294.219 161.838 293.922 162.005 293.568 161.984ZM299.886 160.145C299.302 160.114 299.068 159.999 299.365 159.901C299.667 159.796 300.146 159.828 300.433 159.963C300.719 160.098 300.474 160.182 299.886 160.145ZM303.703 160.864C303.469 160.854 303.287 160.635 303.302 160.39C303.318 160.14 303.511 160.067 303.74 160.223C303.964 160.385 304.146 160.598 304.141 160.703C304.136 160.807 303.938 160.88 303.703 160.864ZM304.396 159.578C304.302 159.411 304.906 159.234 305.74 159.187C306.672 159.135 307.183 159.27 307.073 159.541C306.875 160.031 304.656 160.062 304.396 159.578ZM309.641 159.286C308.828 160.005 308.198 160.02 307.823 159.328C307.651 159.01 307.724 158.942 308.021 159.151C308.281 159.333 308.505 159.281 308.521 159.031C308.537 158.781 308.948 158.604 309.433 158.63C310.219 158.677 310.24 158.749 309.641 159.286ZM311.75 151.77C311.406 151.749 311.235 151.583 311.37 151.39C311.5 151.203 311.792 151.062 312.011 151.072C312.235 151.088 312.406 151.255 312.391 151.453C312.38 151.645 312.094 151.791 311.75 151.77ZM322.901 151.281C322.74 151.505 322.417 151.682 322.183 151.666C321.948 151.656 321.886 151.458 322.047 151.229C322.203 151.005 322.526 150.833 322.761 150.843C322.995 150.859 323.058 151.057 322.901 151.281ZM325.365 153.526C325.188 153.776 324.844 153.963 324.594 153.947C324.281 153.932 324.297 153.749 324.646 153.374C324.927 153.078 325.073 152.697 324.969 152.536C324.865 152.374 324.979 152.427 325.224 152.661C325.474 152.89 325.537 153.281 325.365 153.526ZM325.953 155.51C325.531 154.973 325.547 154.859 326.052 154.89C326.391 154.911 326.761 155.218 326.875 155.578C327.136 156.411 326.63 156.369 325.953 155.51ZM329.443 154.744C328.526 154.552 328.12 153.296 328.99 153.348C329.224 153.364 329.406 153.588 329.391 153.848C329.375 154.124 329.766 154.244 330.339 154.135C330.88 154.031 331.568 154.124 331.87 154.333C332.526 154.796 330.948 155.062 329.443 154.744ZM340.141 153.145C339.906 153.13 339.724 152.927 339.74 152.692C339.755 152.458 339.959 152.276 340.193 152.291C340.427 152.307 340.61 152.51 340.594 152.744C340.578 152.979 340.375 153.156 340.141 153.145ZM342.401 153.276C342.25 153.739 341.927 154.104 341.677 154.088C341.433 154.078 341.365 153.947 341.526 153.802C341.693 153.656 341.641 153.281 341.412 152.973C341.125 152.588 341.141 152.338 341.464 152.161C342.198 151.765 342.698 152.359 342.401 153.276ZM341.86 149.859C341.74 149.64 342.021 149.583 342.485 149.729C342.948 149.88 343.318 150.078 343.313 150.166C343.297 150.505 342.068 150.244 341.86 149.859ZM347.63 151.432C346.636 151.38 345.823 151.26 345.828 151.171C345.849 150.812 348.433 150.802 348.922 151.156C349.24 151.385 348.719 151.494 347.63 151.432ZM350.724 144.343C350.594 144.098 350.797 143.916 351.177 143.942C351.558 143.963 351.74 144.166 351.578 144.39C351.422 144.619 351.214 144.796 351.125 144.791C351.037 144.786 350.854 144.583 350.724 144.343ZM351.573 151.208C351.078 151.156 350.979 151.052 351.328 150.937C351.646 150.828 352.011 150.869 352.146 151.02C352.281 151.166 352.021 151.255 351.573 151.208ZM354.495 145.848C354.334 146.072 354.12 146.255 354.016 146.244C353.912 146.239 353.839 146.041 353.854 145.807C353.865 145.572 354.078 145.395 354.328 145.406C354.578 145.421 354.651 145.619 354.495 145.848ZM354.13 144.078C353.636 144.026 353.542 143.921 353.891 143.807C354.203 143.697 354.573 143.739 354.703 143.89C354.839 144.036 354.578 144.124 354.13 144.078ZM357.287 144.296C356.672 144.26 356.084 143.927 355.964 143.546C355.787 143.01 355.943 142.937 356.688 143.213C357.203 143.401 357.797 143.739 358.011 143.958C358.24 144.203 357.948 144.333 357.287 144.296ZM360.146 144.463C359.985 144.687 359.662 144.864 359.427 144.848C359.193 144.838 359.13 144.64 359.287 144.411C359.448 144.187 359.771 144.015 360.005 144.026C360.24 144.041 360.302 144.239 360.146 144.463ZM360.709 145.354C360.459 145.338 360.386 145.14 360.547 144.916C360.703 144.687 360.917 144.51 361.021 144.515C361.125 144.52 361.198 144.718 361.188 144.953C361.172 145.187 360.959 145.369 360.709 145.354ZM370.964 145.854C370.261 145.833 369.808 145.64 369.959 145.432C370.297 144.953 371.766 145.01 372.037 145.515C372.151 145.723 371.667 145.874 370.964 145.854ZM374.209 145.713C374.052 145.937 373.834 146.119 373.729 146.114C373.63 146.109 373.552 145.911 373.568 145.677C373.584 145.442 373.797 145.26 374.047 145.276C374.292 145.291 374.37 145.489 374.209 145.713ZM388.162 140.927C387.667 140.874 387.573 140.77 387.922 140.656C388.235 140.546 388.604 140.588 388.735 140.734C388.87 140.885 388.61 140.973 388.162 140.927ZM388.313 138.369C387.818 138.317 387.719 138.208 388.068 138.093C388.386 137.989 388.75 138.026 388.886 138.177C389.021 138.328 388.761 138.411 388.313 138.369ZM394.729 139.567C394.235 139.63 394.037 139.463 394.183 139.104C394.308 138.796 394.755 138.494 395.177 138.437C395.672 138.374 395.865 138.541 395.719 138.901C395.599 139.208 395.151 139.51 394.729 139.567ZM397.297 135.499C396.771 135.114 396.792 135.052 397.433 135.088C397.844 135.104 398.167 135.312 398.151 135.552C398.12 136.067 398.073 136.067 397.297 135.499ZM401.896 133.166C401.401 133.114 401.308 133.01 401.656 132.89C401.969 132.786 402.339 132.822 402.469 132.973C402.604 133.124 402.349 133.213 401.896 133.166ZM410.62 124.286C410.516 124.281 410.323 124.078 410.193 123.833C410.058 123.593 410.156 123.406 410.406 123.416C410.651 123.432 410.844 123.635 410.834 123.869C410.818 124.109 410.724 124.291 410.62 124.286ZM415.688 130.546C415.281 130.505 415.177 130.39 415.469 130.291C415.755 130.192 415.901 129.833 415.787 129.484C415.677 129.14 415.802 128.874 416.063 128.885C416.323 128.901 416.516 129.302 416.485 129.77C416.453 130.312 416.162 130.593 415.688 130.546ZM422.802 120.015C422.63 120.39 422.193 120.682 421.828 120.661C421.459 120.64 421.245 120.572 421.344 120.51C421.448 120.447 421.886 120.161 422.323 119.864C423.011 119.401 423.073 119.416 422.802 120.015ZM428.084 114.604C428.094 114.369 428.302 114.187 428.537 114.203C428.771 114.213 428.948 114.416 428.938 114.651C428.922 114.885 428.719 115.067 428.485 115.052C428.25 115.041 428.068 114.838 428.084 114.604ZM429.969 118.994C429.735 118.979 429.552 118.765 429.568 118.515C429.584 118.27 429.781 118.197 430.005 118.354C430.229 118.515 430.412 118.729 430.406 118.833C430.401 118.937 430.203 119.01 429.969 118.994Z" fill="#A8C4DC"></path></g><path d="M329.453 27.3026C329.229 27.4224 329.151 27.7088 329.271 27.9328C329.635 28.6047 330.286 28.4432 330.062 27.7401C329.948 27.3807 329.672 27.1828 329.453 27.3026Z" fill="#A8C4DC"></path><path d="M264.64 15.5692C264.604 16.1265 264.802 16.3244 265.245 16.1838C265.604 16.0692 265.911 15.8244 265.922 15.6421C265.932 15.4598 265.656 15.1786 265.312 15.0223C264.89 14.8296 264.672 15.0067 264.64 15.5692Z" fill="#A8C4DC"></path><path d="M132.526 26.1096C132.427 26.1877 132.948 26.2867 133.693 26.3335C134.438 26.3752 135.057 26.2138 135.073 25.9742C135.094 25.594 133.063 25.6981 132.526 26.1096Z" fill="#A8C4DC"></path><path d="M246.838 158.824C246.854 158.589 246.672 158.386 246.437 158.376C246.203 158.36 246 158.543 245.984 158.777C245.969 159.011 246.151 159.214 246.385 159.23C246.62 159.241 246.823 159.058 246.838 158.824Z" fill="#A8C4DC"></path></svg> 